<mxfile host="app.diagrams.net" modified="2023-06-05T14:08:16.171Z" agent="Mozilla/5.0 (Windows NT 10.0; Win64; x64; rv:102.0) Gecko/20100101 Firefox/102.0" etag="5RzG-OTmsjdpz5Y6ORVc" version="21.3.7" type="github">
  <diagram name="Page-1" id="64c3da0e-402f-94eb-ee01-a36477274f13">
    <mxGraphModel dx="2503" dy="1726" grid="1" gridSize="10" guides="1" tooltips="1" connect="1" arrows="1" fold="1" page="1" pageScale="1" pageWidth="1169" pageHeight="826" background="none" math="0" shadow="0">
      <root>
        <mxCell id="0" />
        <mxCell id="1" parent="0" />
        <mxCell id="u5dQJUDq4oG_bzLmvjMr-240" value="" style="group" vertex="1" connectable="0" parent="1">
          <mxGeometry width="735" height="673.96" as="geometry" />
        </mxCell>
        <mxCell id="u5dQJUDq4oG_bzLmvjMr-241" value="" style="group" vertex="1" connectable="0" parent="u5dQJUDq4oG_bzLmvjMr-240">
          <mxGeometry x="16.460000000000093" width="678.6799999999998" height="350" as="geometry" />
        </mxCell>
        <mxCell id="2" value="" style="whiteSpace=wrap;rounded=1;shadow=1;fillColor=#10739E;strokeColor=none;fontColor=#FFFFFF;fontStyle=1;fontSize=24;strokeWidth=7;" parent="u5dQJUDq4oG_bzLmvjMr-241" vertex="1">
          <mxGeometry x="272.4550943396225" width="157.16981132075472" height="39.62264150943396" as="geometry" />
        </mxCell>
        <mxCell id="4" value="" style="whiteSpace=wrap;rounded=1;fillColor=#F2931E;strokeColor=none;shadow=1;fontColor=#FFFFFF;fontStyle=1;fontSize=14;strokeWidth=7;" parent="u5dQJUDq4oG_bzLmvjMr-241" vertex="1">
          <mxGeometry x="55.19094339622632" y="79.2452830188678" width="64.71698113207547" height="39.62264150943396" as="geometry" />
        </mxCell>
        <mxCell id="6" value="" style="whiteSpace=wrap;rounded=1;fillColor=#F2931E;strokeColor=none;shadow=1;fontColor=#FFFFFF;fontStyle=1;fontSize=14;strokeWidth=7;" parent="u5dQJUDq4oG_bzLmvjMr-241" vertex="1">
          <mxGeometry x="226.22867924528293" y="79.2452830188678" width="64.71698113207547" height="39.62264150943396" as="geometry" />
        </mxCell>
        <mxCell id="7" value="" style="whiteSpace=wrap;rounded=1;fillColor=#F2931E;strokeColor=none;shadow=1;fontColor=#FFFFFF;fontStyle=1;fontSize=14;strokeWidth=7;" parent="u5dQJUDq4oG_bzLmvjMr-241" vertex="1">
          <mxGeometry x="397.2664150943395" y="79.2452830188678" width="64.71698113207547" height="39.62264150943396" as="geometry" />
        </mxCell>
        <mxCell id="8" value="" style="whiteSpace=wrap;rounded=1;fillColor=#F2931E;strokeColor=none;shadow=1;fontColor=#FFFFFF;fontStyle=1;fontSize=14;strokeWidth=7;" parent="u5dQJUDq4oG_bzLmvjMr-241" vertex="1">
          <mxGeometry x="568.304150943396" y="79.2452830188678" width="64.71698113207547" height="39.62264150943396" as="geometry" />
        </mxCell>
        <mxCell id="43" value="" style="whiteSpace=wrap;rounded=1;fillColor=#12AAB5;strokeColor=none;shadow=1;fontColor=#FFFFFF;strokeWidth=7;" parent="u5dQJUDq4oG_bzLmvjMr-241" vertex="1">
          <mxGeometry x="13.587169811320553" y="165.09433962264157" width="55.47169811320754" height="39.62264150943396" as="geometry" />
        </mxCell>
        <mxCell id="44" value="" style="whiteSpace=wrap;rounded=1;fillColor=#12AAB5;strokeColor=none;shadow=1;fontColor=#FFFFFF;strokeWidth=7;" parent="u5dQJUDq4oG_bzLmvjMr-241" vertex="1">
          <mxGeometry x="106.03999999999981" y="165.09433962264157" width="55.47169811320754" height="39.62264150943396" as="geometry" />
        </mxCell>
        <mxCell id="116" value="" style="edgeStyle=elbowEdgeStyle;elbow=vertical;rounded=0;fontColor=#000000;endArrow=none;endFill=0;strokeWidth=7;strokeColor=#23445D;" parent="u5dQJUDq4oG_bzLmvjMr-241" source="4" target="43" edge="1">
          <mxGeometry width="100" height="100" relative="1" as="geometry">
            <mxPoint x="-78.86566037735858" y="125.4716981132074" as="sourcePoint" />
            <mxPoint x="-125.0920754716982" y="171.69811320754715" as="targetPoint" />
          </mxGeometry>
        </mxCell>
        <mxCell id="117" value="" style="edgeStyle=elbowEdgeStyle;elbow=vertical;rounded=0;fontColor=#000000;endArrow=none;endFill=0;strokeWidth=7;strokeColor=#23445D;" parent="u5dQJUDq4oG_bzLmvjMr-241" source="4" target="44" edge="1">
          <mxGeometry width="100" height="100" relative="1" as="geometry">
            <mxPoint x="-78.86566037735858" y="125.4716981132074" as="sourcePoint" />
            <mxPoint x="-32.639245283018965" y="171.69811320754715" as="targetPoint" />
          </mxGeometry>
        </mxCell>
        <mxCell id="133" value="" style="whiteSpace=wrap;rounded=1;fillColor=#12AAB5;strokeColor=none;shadow=1;fontColor=#FFFFFF;strokeWidth=7;" parent="u5dQJUDq4oG_bzLmvjMr-241" vertex="1">
          <mxGeometry x="184.62490566037718" y="165.09433962264157" width="55.47169811320754" height="39.62264150943396" as="geometry" />
        </mxCell>
        <mxCell id="134" value="" style="whiteSpace=wrap;rounded=1;fillColor=#12AAB5;strokeColor=none;shadow=1;fontColor=#FFFFFF;strokeWidth=7;" parent="u5dQJUDq4oG_bzLmvjMr-241" vertex="1">
          <mxGeometry x="277.0777358490564" y="165.09433962264157" width="55.47169811320754" height="39.62264150943396" as="geometry" />
        </mxCell>
        <mxCell id="155" value="" style="whiteSpace=wrap;rounded=1;fillColor=#12AAB5;strokeColor=none;shadow=1;fontColor=#FFFFFF;strokeWidth=7;" parent="u5dQJUDq4oG_bzLmvjMr-241" vertex="1">
          <mxGeometry x="355.66264150943374" y="165.09433962264166" width="55.47169811320754" height="39.62264150943396" as="geometry" />
        </mxCell>
        <mxCell id="156" value="" style="whiteSpace=wrap;rounded=1;fillColor=#12AAB5;strokeColor=none;shadow=1;fontColor=#FFFFFF;strokeWidth=7;" parent="u5dQJUDq4oG_bzLmvjMr-241" vertex="1">
          <mxGeometry x="448.11547169811297" y="165.09433962264166" width="55.47169811320754" height="39.62264150943396" as="geometry" />
        </mxCell>
        <mxCell id="177" value="" style="whiteSpace=wrap;rounded=1;fillColor=#12AAB5;strokeColor=none;shadow=1;fontColor=#FFFFFF;strokeWidth=7;" parent="u5dQJUDq4oG_bzLmvjMr-241" vertex="1">
          <mxGeometry x="526.7003773584904" y="165.09433962264143" width="55.47169811320754" height="39.62264150943396" as="geometry" />
        </mxCell>
        <mxCell id="178" value="" style="whiteSpace=wrap;rounded=1;fillColor=#12AAB5;strokeColor=none;shadow=1;fontColor=#FFFFFF;strokeWidth=7;" parent="u5dQJUDq4oG_bzLmvjMr-241" vertex="1">
          <mxGeometry x="619.1532075471696" y="165.09433962264143" width="55.47169811320754" height="39.62264150943396" as="geometry" />
        </mxCell>
        <mxCell id="221" value="" style="edgeStyle=elbowEdgeStyle;elbow=vertical;rounded=0;fontColor=#000000;endArrow=none;endFill=0;strokeWidth=7;strokeColor=#23445D;" parent="u5dQJUDq4oG_bzLmvjMr-241" source="6" target="133" edge="1">
          <mxGeometry width="100" height="100" relative="1" as="geometry">
            <mxPoint x="170.75698113207537" y="145.28301886792454" as="sourcePoint" />
            <mxPoint x="216.983396226415" y="79.24528301886792" as="targetPoint" />
          </mxGeometry>
        </mxCell>
        <mxCell id="222" value="" style="edgeStyle=elbowEdgeStyle;elbow=vertical;rounded=0;fontColor=#000000;endArrow=none;endFill=0;strokeWidth=7;strokeColor=#23445D;" parent="u5dQJUDq4oG_bzLmvjMr-241" source="6" target="134" edge="1">
          <mxGeometry width="100" height="100" relative="1" as="geometry">
            <mxPoint x="286.3230188679244" y="151.88679245283018" as="sourcePoint" />
            <mxPoint x="332.549433962264" y="85.84905660377358" as="targetPoint" />
          </mxGeometry>
        </mxCell>
        <mxCell id="223" value="" style="edgeStyle=elbowEdgeStyle;elbow=vertical;rounded=0;fontColor=#000000;endArrow=none;endFill=0;strokeWidth=7;strokeColor=#23445D;" parent="u5dQJUDq4oG_bzLmvjMr-241" source="7" target="155" edge="1">
          <mxGeometry width="100" height="100" relative="1" as="geometry">
            <mxPoint x="429.62490566037724" y="165.0943396226415" as="sourcePoint" />
            <mxPoint x="383.3984905660376" y="92.45283018867924" as="targetPoint" />
          </mxGeometry>
        </mxCell>
        <mxCell id="224" value="" style="edgeStyle=elbowEdgeStyle;elbow=vertical;rounded=0;fontColor=#000000;endArrow=none;endFill=0;strokeWidth=7;strokeColor=#23445D;" parent="u5dQJUDq4oG_bzLmvjMr-241" source="7" target="156" edge="1">
          <mxGeometry width="100" height="100" relative="1" as="geometry">
            <mxPoint x="471.22867924528293" y="158.49056603773585" as="sourcePoint" />
            <mxPoint x="517.4550943396225" y="92.45283018867924" as="targetPoint" />
          </mxGeometry>
        </mxCell>
        <mxCell id="225" value="" style="edgeStyle=elbowEdgeStyle;elbow=vertical;rounded=0;fontColor=#000000;endArrow=none;endFill=0;strokeWidth=7;strokeColor=#23445D;" parent="u5dQJUDq4oG_bzLmvjMr-241" source="8" target="177" edge="1">
          <mxGeometry width="100" height="100" relative="1" as="geometry">
            <mxPoint x="526.7003773584904" y="158.49056603773585" as="sourcePoint" />
            <mxPoint x="572.9267924528301" y="92.45283018867924" as="targetPoint" />
          </mxGeometry>
        </mxCell>
        <mxCell id="226" value="" style="edgeStyle=elbowEdgeStyle;elbow=vertical;rounded=0;fontColor=#000000;endArrow=none;endFill=0;strokeWidth=7;strokeColor=#23445D;" parent="u5dQJUDq4oG_bzLmvjMr-241" source="8" target="178" edge="1">
          <mxGeometry width="100" height="100" relative="1" as="geometry">
            <mxPoint x="633.0211320754715" y="158.49056603773585" as="sourcePoint" />
            <mxPoint x="679.2475471698112" y="92.45283018867924" as="targetPoint" />
          </mxGeometry>
        </mxCell>
        <mxCell id="230" value="" style="edgeStyle=elbowEdgeStyle;elbow=vertical;rounded=0;fontColor=#000000;endArrow=none;endFill=0;strokeWidth=7;strokeColor=#23445D;" parent="u5dQJUDq4oG_bzLmvjMr-241" source="2" target="4" edge="1">
          <mxGeometry width="100" height="100" relative="1" as="geometry">
            <mxPoint x="64.43622641509424" y="66.0377358490566" as="sourcePoint" />
            <mxPoint x="110.66264150943387" as="targetPoint" />
          </mxGeometry>
        </mxCell>
        <mxCell id="231" value="" style="edgeStyle=elbowEdgeStyle;elbow=vertical;rounded=0;fontColor=#000000;endArrow=none;endFill=0;strokeWidth=7;strokeColor=#23445D;" parent="u5dQJUDq4oG_bzLmvjMr-241" source="2" target="6" edge="1">
          <mxGeometry width="100" height="100" relative="1" as="geometry">
            <mxPoint x="69.0588679245282" y="72.64150943396227" as="sourcePoint" />
            <mxPoint x="115.28528301886783" y="6.60377358490566" as="targetPoint" />
          </mxGeometry>
        </mxCell>
        <mxCell id="232" value="" style="edgeStyle=elbowEdgeStyle;elbow=vertical;rounded=0;fontColor=#000000;endArrow=none;endFill=0;strokeWidth=7;strokeColor=#23445D;" parent="u5dQJUDq4oG_bzLmvjMr-241" source="2" target="7" edge="1">
          <mxGeometry width="100" height="100" relative="1" as="geometry">
            <mxPoint x="73.68150943396216" y="79.24528301886792" as="sourcePoint" />
            <mxPoint x="119.90792452830178" y="13.20754716981132" as="targetPoint" />
          </mxGeometry>
        </mxCell>
        <mxCell id="233" value="" style="edgeStyle=elbowEdgeStyle;elbow=vertical;rounded=0;fontColor=#000000;endArrow=none;endFill=0;strokeWidth=7;strokeColor=#23445D;" parent="u5dQJUDq4oG_bzLmvjMr-241" source="2" target="8" edge="1">
          <mxGeometry width="100" height="100" relative="1" as="geometry">
            <mxPoint x="78.30415094339614" y="85.84905660377358" as="sourcePoint" />
            <mxPoint x="124.53056603773575" y="19.81132075471698" as="targetPoint" />
          </mxGeometry>
        </mxCell>
        <mxCell id="u5dQJUDq4oG_bzLmvjMr-237" value="" style="shape=curlyBracket;whiteSpace=wrap;html=1;rounded=1;flipH=1;labelPosition=right;verticalLabelPosition=middle;align=left;verticalAlign=middle;rotation=90;strokeWidth=4;" vertex="1" parent="u5dQJUDq4oG_bzLmvjMr-241">
          <mxGeometry x="318.5399999999999" y="-91.7" width="41.6" height="678.68" as="geometry" />
        </mxCell>
        <mxCell id="u5dQJUDq4oG_bzLmvjMr-238" value="&lt;sup&gt;&lt;font style=&quot;font-size: 40px;&quot;&gt;Tree&lt;/font&gt;&lt;/sup&gt;&lt;sub style=&quot;font-size: 26px;&quot;&gt;&lt;font style=&quot;font-size: 26px;&quot;&gt;&lt;font style=&quot;font-size: 26px;&quot;&gt;(1)&lt;/font&gt;&lt;/font&gt;&lt;/sub&gt;&lt;font style=&quot;font-size: 40px;&quot;&gt; &lt;/font&gt;" style="text;html=1;strokeColor=none;fillColor=none;align=center;verticalAlign=middle;whiteSpace=wrap;rounded=0;" vertex="1" parent="u5dQJUDq4oG_bzLmvjMr-241">
          <mxGeometry x="297.88" y="264.15" width="162.12" height="85.85" as="geometry" />
        </mxCell>
        <mxCell id="u5dQJUDq4oG_bzLmvjMr-271" value="" style="group" vertex="1" connectable="0" parent="1">
          <mxGeometry x="1260" width="861" height="1063.96" as="geometry" />
        </mxCell>
        <mxCell id="u5dQJUDq4oG_bzLmvjMr-272" value="" style="group" vertex="1" connectable="0" parent="u5dQJUDq4oG_bzLmvjMr-271">
          <mxGeometry x="-433.5399999999999" width="678.6799999999998" height="350" as="geometry" />
        </mxCell>
        <mxCell id="u5dQJUDq4oG_bzLmvjMr-273" value="" style="whiteSpace=wrap;rounded=1;shadow=1;fillColor=#10739E;strokeColor=none;fontColor=#FFFFFF;fontStyle=1;fontSize=24;strokeWidth=7;" vertex="1" parent="u5dQJUDq4oG_bzLmvjMr-272">
          <mxGeometry x="272.4550943396225" width="157.16981132075472" height="39.62264150943396" as="geometry" />
        </mxCell>
        <mxCell id="u5dQJUDq4oG_bzLmvjMr-274" value="" style="whiteSpace=wrap;rounded=1;fillColor=#F2931E;strokeColor=none;shadow=1;fontColor=#FFFFFF;fontStyle=1;fontSize=14;strokeWidth=7;" vertex="1" parent="u5dQJUDq4oG_bzLmvjMr-272">
          <mxGeometry x="55.19094339622632" y="79.2452830188678" width="64.71698113207547" height="39.62264150943396" as="geometry" />
        </mxCell>
        <mxCell id="u5dQJUDq4oG_bzLmvjMr-275" value="" style="whiteSpace=wrap;rounded=1;fillColor=#F2931E;strokeColor=none;shadow=1;fontColor=#FFFFFF;fontStyle=1;fontSize=14;strokeWidth=7;" vertex="1" parent="u5dQJUDq4oG_bzLmvjMr-272">
          <mxGeometry x="226.22867924528293" y="79.2452830188678" width="64.71698113207547" height="39.62264150943396" as="geometry" />
        </mxCell>
        <mxCell id="u5dQJUDq4oG_bzLmvjMr-276" value="" style="whiteSpace=wrap;rounded=1;fillColor=#F2931E;strokeColor=none;shadow=1;fontColor=#FFFFFF;fontStyle=1;fontSize=14;strokeWidth=7;" vertex="1" parent="u5dQJUDq4oG_bzLmvjMr-272">
          <mxGeometry x="397.2664150943395" y="79.2452830188678" width="64.71698113207547" height="39.62264150943396" as="geometry" />
        </mxCell>
        <mxCell id="u5dQJUDq4oG_bzLmvjMr-277" value="" style="whiteSpace=wrap;rounded=1;fillColor=#F2931E;strokeColor=none;shadow=1;fontColor=#FFFFFF;fontStyle=1;fontSize=14;strokeWidth=7;" vertex="1" parent="u5dQJUDq4oG_bzLmvjMr-272">
          <mxGeometry x="568.304150943396" y="79.2452830188678" width="64.71698113207547" height="39.62264150943396" as="geometry" />
        </mxCell>
        <mxCell id="u5dQJUDq4oG_bzLmvjMr-278" value="" style="whiteSpace=wrap;rounded=1;fillColor=#12AAB5;strokeColor=none;shadow=1;fontColor=#FFFFFF;strokeWidth=7;" vertex="1" parent="u5dQJUDq4oG_bzLmvjMr-272">
          <mxGeometry x="13.587169811320553" y="165.09433962264157" width="55.47169811320754" height="39.62264150943396" as="geometry" />
        </mxCell>
        <mxCell id="u5dQJUDq4oG_bzLmvjMr-279" value="" style="whiteSpace=wrap;rounded=1;fillColor=#12AAB5;strokeColor=none;shadow=1;fontColor=#FFFFFF;strokeWidth=7;" vertex="1" parent="u5dQJUDq4oG_bzLmvjMr-272">
          <mxGeometry x="106.03999999999981" y="165.09433962264157" width="55.47169811320754" height="39.62264150943396" as="geometry" />
        </mxCell>
        <mxCell id="u5dQJUDq4oG_bzLmvjMr-280" value="" style="edgeStyle=elbowEdgeStyle;elbow=vertical;rounded=0;fontColor=#000000;endArrow=none;endFill=0;strokeWidth=7;strokeColor=#23445D;" edge="1" parent="u5dQJUDq4oG_bzLmvjMr-272" source="u5dQJUDq4oG_bzLmvjMr-274" target="u5dQJUDq4oG_bzLmvjMr-278">
          <mxGeometry width="100" height="100" relative="1" as="geometry">
            <mxPoint x="-78.86566037735858" y="125.4716981132074" as="sourcePoint" />
            <mxPoint x="-125.0920754716982" y="171.69811320754715" as="targetPoint" />
          </mxGeometry>
        </mxCell>
        <mxCell id="u5dQJUDq4oG_bzLmvjMr-281" value="" style="edgeStyle=elbowEdgeStyle;elbow=vertical;rounded=0;fontColor=#000000;endArrow=none;endFill=0;strokeWidth=7;strokeColor=#23445D;" edge="1" parent="u5dQJUDq4oG_bzLmvjMr-272" source="u5dQJUDq4oG_bzLmvjMr-274" target="u5dQJUDq4oG_bzLmvjMr-279">
          <mxGeometry width="100" height="100" relative="1" as="geometry">
            <mxPoint x="-78.86566037735858" y="125.4716981132074" as="sourcePoint" />
            <mxPoint x="-32.639245283018965" y="171.69811320754715" as="targetPoint" />
          </mxGeometry>
        </mxCell>
        <mxCell id="u5dQJUDq4oG_bzLmvjMr-282" value="" style="whiteSpace=wrap;rounded=1;fillColor=#12AAB5;strokeColor=none;shadow=1;fontColor=#FFFFFF;strokeWidth=7;" vertex="1" parent="u5dQJUDq4oG_bzLmvjMr-272">
          <mxGeometry x="184.62490566037718" y="165.09433962264157" width="55.47169811320754" height="39.62264150943396" as="geometry" />
        </mxCell>
        <mxCell id="u5dQJUDq4oG_bzLmvjMr-283" value="" style="whiteSpace=wrap;rounded=1;fillColor=#12AAB5;strokeColor=none;shadow=1;fontColor=#FFFFFF;strokeWidth=7;" vertex="1" parent="u5dQJUDq4oG_bzLmvjMr-272">
          <mxGeometry x="277.0777358490564" y="165.09433962264157" width="55.47169811320754" height="39.62264150943396" as="geometry" />
        </mxCell>
        <mxCell id="u5dQJUDq4oG_bzLmvjMr-284" value="" style="whiteSpace=wrap;rounded=1;fillColor=#12AAB5;strokeColor=none;shadow=1;fontColor=#FFFFFF;strokeWidth=7;" vertex="1" parent="u5dQJUDq4oG_bzLmvjMr-272">
          <mxGeometry x="355.66264150943374" y="165.09433962264166" width="55.47169811320754" height="39.62264150943396" as="geometry" />
        </mxCell>
        <mxCell id="u5dQJUDq4oG_bzLmvjMr-285" value="" style="whiteSpace=wrap;rounded=1;fillColor=#12AAB5;strokeColor=none;shadow=1;fontColor=#FFFFFF;strokeWidth=7;" vertex="1" parent="u5dQJUDq4oG_bzLmvjMr-272">
          <mxGeometry x="448.11547169811297" y="165.09433962264166" width="55.47169811320754" height="39.62264150943396" as="geometry" />
        </mxCell>
        <mxCell id="u5dQJUDq4oG_bzLmvjMr-286" value="" style="whiteSpace=wrap;rounded=1;fillColor=#12AAB5;strokeColor=none;shadow=1;fontColor=#FFFFFF;strokeWidth=7;" vertex="1" parent="u5dQJUDq4oG_bzLmvjMr-272">
          <mxGeometry x="526.7003773584904" y="165.09433962264143" width="55.47169811320754" height="39.62264150943396" as="geometry" />
        </mxCell>
        <mxCell id="u5dQJUDq4oG_bzLmvjMr-287" value="" style="whiteSpace=wrap;rounded=1;fillColor=#12AAB5;strokeColor=none;shadow=1;fontColor=#FFFFFF;strokeWidth=7;" vertex="1" parent="u5dQJUDq4oG_bzLmvjMr-272">
          <mxGeometry x="619.1532075471696" y="165.09433962264143" width="55.47169811320754" height="39.62264150943396" as="geometry" />
        </mxCell>
        <mxCell id="u5dQJUDq4oG_bzLmvjMr-288" value="" style="edgeStyle=elbowEdgeStyle;elbow=vertical;rounded=0;fontColor=#000000;endArrow=none;endFill=0;strokeWidth=7;strokeColor=#23445D;" edge="1" parent="u5dQJUDq4oG_bzLmvjMr-272" source="u5dQJUDq4oG_bzLmvjMr-275" target="u5dQJUDq4oG_bzLmvjMr-282">
          <mxGeometry width="100" height="100" relative="1" as="geometry">
            <mxPoint x="170.75698113207537" y="145.28301886792454" as="sourcePoint" />
            <mxPoint x="216.983396226415" y="79.24528301886792" as="targetPoint" />
          </mxGeometry>
        </mxCell>
        <mxCell id="u5dQJUDq4oG_bzLmvjMr-289" value="" style="edgeStyle=elbowEdgeStyle;elbow=vertical;rounded=0;fontColor=#000000;endArrow=none;endFill=0;strokeWidth=7;strokeColor=#23445D;" edge="1" parent="u5dQJUDq4oG_bzLmvjMr-272" source="u5dQJUDq4oG_bzLmvjMr-275" target="u5dQJUDq4oG_bzLmvjMr-283">
          <mxGeometry width="100" height="100" relative="1" as="geometry">
            <mxPoint x="286.3230188679244" y="151.88679245283018" as="sourcePoint" />
            <mxPoint x="332.549433962264" y="85.84905660377358" as="targetPoint" />
          </mxGeometry>
        </mxCell>
        <mxCell id="u5dQJUDq4oG_bzLmvjMr-290" value="" style="edgeStyle=elbowEdgeStyle;elbow=vertical;rounded=0;fontColor=#000000;endArrow=none;endFill=0;strokeWidth=7;strokeColor=#23445D;" edge="1" parent="u5dQJUDq4oG_bzLmvjMr-272" source="u5dQJUDq4oG_bzLmvjMr-276" target="u5dQJUDq4oG_bzLmvjMr-284">
          <mxGeometry width="100" height="100" relative="1" as="geometry">
            <mxPoint x="429.62490566037724" y="165.0943396226415" as="sourcePoint" />
            <mxPoint x="383.3984905660376" y="92.45283018867924" as="targetPoint" />
          </mxGeometry>
        </mxCell>
        <mxCell id="u5dQJUDq4oG_bzLmvjMr-291" value="" style="edgeStyle=elbowEdgeStyle;elbow=vertical;rounded=0;fontColor=#000000;endArrow=none;endFill=0;strokeWidth=7;strokeColor=#23445D;" edge="1" parent="u5dQJUDq4oG_bzLmvjMr-272" source="u5dQJUDq4oG_bzLmvjMr-276" target="u5dQJUDq4oG_bzLmvjMr-285">
          <mxGeometry width="100" height="100" relative="1" as="geometry">
            <mxPoint x="471.22867924528293" y="158.49056603773585" as="sourcePoint" />
            <mxPoint x="517.4550943396225" y="92.45283018867924" as="targetPoint" />
          </mxGeometry>
        </mxCell>
        <mxCell id="u5dQJUDq4oG_bzLmvjMr-292" value="" style="edgeStyle=elbowEdgeStyle;elbow=vertical;rounded=0;fontColor=#000000;endArrow=none;endFill=0;strokeWidth=7;strokeColor=#23445D;" edge="1" parent="u5dQJUDq4oG_bzLmvjMr-272" source="u5dQJUDq4oG_bzLmvjMr-277" target="u5dQJUDq4oG_bzLmvjMr-286">
          <mxGeometry width="100" height="100" relative="1" as="geometry">
            <mxPoint x="526.7003773584904" y="158.49056603773585" as="sourcePoint" />
            <mxPoint x="572.9267924528301" y="92.45283018867924" as="targetPoint" />
          </mxGeometry>
        </mxCell>
        <mxCell id="u5dQJUDq4oG_bzLmvjMr-293" value="" style="edgeStyle=elbowEdgeStyle;elbow=vertical;rounded=0;fontColor=#000000;endArrow=none;endFill=0;strokeWidth=7;strokeColor=#23445D;" edge="1" parent="u5dQJUDq4oG_bzLmvjMr-272" source="u5dQJUDq4oG_bzLmvjMr-277" target="u5dQJUDq4oG_bzLmvjMr-287">
          <mxGeometry width="100" height="100" relative="1" as="geometry">
            <mxPoint x="633.0211320754715" y="158.49056603773585" as="sourcePoint" />
            <mxPoint x="679.2475471698112" y="92.45283018867924" as="targetPoint" />
          </mxGeometry>
        </mxCell>
        <mxCell id="u5dQJUDq4oG_bzLmvjMr-294" value="" style="edgeStyle=elbowEdgeStyle;elbow=vertical;rounded=0;fontColor=#000000;endArrow=none;endFill=0;strokeWidth=7;strokeColor=#23445D;" edge="1" parent="u5dQJUDq4oG_bzLmvjMr-272" source="u5dQJUDq4oG_bzLmvjMr-273" target="u5dQJUDq4oG_bzLmvjMr-274">
          <mxGeometry width="100" height="100" relative="1" as="geometry">
            <mxPoint x="64.43622641509424" y="66.0377358490566" as="sourcePoint" />
            <mxPoint x="110.66264150943387" as="targetPoint" />
          </mxGeometry>
        </mxCell>
        <mxCell id="u5dQJUDq4oG_bzLmvjMr-295" value="" style="edgeStyle=elbowEdgeStyle;elbow=vertical;rounded=0;fontColor=#000000;endArrow=none;endFill=0;strokeWidth=7;strokeColor=#23445D;" edge="1" parent="u5dQJUDq4oG_bzLmvjMr-272" source="u5dQJUDq4oG_bzLmvjMr-273" target="u5dQJUDq4oG_bzLmvjMr-275">
          <mxGeometry width="100" height="100" relative="1" as="geometry">
            <mxPoint x="69.0588679245282" y="72.64150943396227" as="sourcePoint" />
            <mxPoint x="115.28528301886783" y="6.60377358490566" as="targetPoint" />
          </mxGeometry>
        </mxCell>
        <mxCell id="u5dQJUDq4oG_bzLmvjMr-296" value="" style="edgeStyle=elbowEdgeStyle;elbow=vertical;rounded=0;fontColor=#000000;endArrow=none;endFill=0;strokeWidth=7;strokeColor=#23445D;" edge="1" parent="u5dQJUDq4oG_bzLmvjMr-272" source="u5dQJUDq4oG_bzLmvjMr-273" target="u5dQJUDq4oG_bzLmvjMr-276">
          <mxGeometry width="100" height="100" relative="1" as="geometry">
            <mxPoint x="73.68150943396216" y="79.24528301886792" as="sourcePoint" />
            <mxPoint x="119.90792452830178" y="13.20754716981132" as="targetPoint" />
          </mxGeometry>
        </mxCell>
        <mxCell id="u5dQJUDq4oG_bzLmvjMr-297" value="" style="edgeStyle=elbowEdgeStyle;elbow=vertical;rounded=0;fontColor=#000000;endArrow=none;endFill=0;strokeWidth=7;strokeColor=#23445D;" edge="1" parent="u5dQJUDq4oG_bzLmvjMr-272" source="u5dQJUDq4oG_bzLmvjMr-273" target="u5dQJUDq4oG_bzLmvjMr-277">
          <mxGeometry width="100" height="100" relative="1" as="geometry">
            <mxPoint x="78.30415094339614" y="85.84905660377358" as="sourcePoint" />
            <mxPoint x="124.53056603773575" y="19.81132075471698" as="targetPoint" />
          </mxGeometry>
        </mxCell>
        <mxCell id="u5dQJUDq4oG_bzLmvjMr-298" value="" style="shape=curlyBracket;whiteSpace=wrap;html=1;rounded=1;flipH=1;labelPosition=right;verticalLabelPosition=middle;align=left;verticalAlign=middle;rotation=90;strokeWidth=4;" vertex="1" parent="u5dQJUDq4oG_bzLmvjMr-272">
          <mxGeometry x="318.5399999999999" y="-91.7" width="41.6" height="678.68" as="geometry" />
        </mxCell>
        <mxCell id="u5dQJUDq4oG_bzLmvjMr-299" value="&lt;sup&gt;&lt;font style=&quot;font-size: 40px;&quot;&gt;Tree&lt;/font&gt;&lt;/sup&gt;&lt;sub style=&quot;font-size: 26px;&quot;&gt;&lt;font style=&quot;font-size: 26px;&quot;&gt;&lt;font style=&quot;font-size: 26px;&quot;&gt;(2)&lt;/font&gt;&lt;/font&gt;&lt;/sub&gt;&lt;font style=&quot;font-size: 40px;&quot;&gt; &lt;/font&gt;" style="text;html=1;strokeColor=none;fillColor=none;align=center;verticalAlign=middle;whiteSpace=wrap;rounded=0;" vertex="1" parent="u5dQJUDq4oG_bzLmvjMr-272">
          <mxGeometry x="297.88" y="264.15" width="172.12" height="85.85" as="geometry" />
        </mxCell>
        <mxCell id="u5dQJUDq4oG_bzLmvjMr-329" value="" style="group" vertex="1" connectable="0" parent="u5dQJUDq4oG_bzLmvjMr-271">
          <mxGeometry x="1.0658141036401503e-14" y="380" width="735" height="673.96" as="geometry" />
        </mxCell>
        <mxCell id="u5dQJUDq4oG_bzLmvjMr-330" value="" style="group" vertex="1" connectable="0" parent="u5dQJUDq4oG_bzLmvjMr-329">
          <mxGeometry x="-433.5399999999999" width="678.6799999999998" height="350" as="geometry" />
        </mxCell>
        <mxCell id="u5dQJUDq4oG_bzLmvjMr-331" value="" style="whiteSpace=wrap;rounded=1;shadow=1;fillColor=#10739E;strokeColor=none;fontColor=#FFFFFF;fontStyle=1;fontSize=24;strokeWidth=7;" vertex="1" parent="u5dQJUDq4oG_bzLmvjMr-330">
          <mxGeometry x="272.4550943396225" width="157.16981132075472" height="39.62264150943396" as="geometry" />
        </mxCell>
        <mxCell id="u5dQJUDq4oG_bzLmvjMr-332" value="" style="whiteSpace=wrap;rounded=1;fillColor=#F2931E;strokeColor=none;shadow=1;fontColor=#FFFFFF;fontStyle=1;fontSize=14;strokeWidth=7;" vertex="1" parent="u5dQJUDq4oG_bzLmvjMr-330">
          <mxGeometry x="55.19094339622632" y="79.2452830188678" width="64.71698113207547" height="39.62264150943396" as="geometry" />
        </mxCell>
        <mxCell id="u5dQJUDq4oG_bzLmvjMr-333" value="" style="whiteSpace=wrap;rounded=1;fillColor=#F2931E;strokeColor=none;shadow=1;fontColor=#FFFFFF;fontStyle=1;fontSize=14;strokeWidth=7;" vertex="1" parent="u5dQJUDq4oG_bzLmvjMr-330">
          <mxGeometry x="226.22867924528293" y="79.2452830188678" width="64.71698113207547" height="39.62264150943396" as="geometry" />
        </mxCell>
        <mxCell id="u5dQJUDq4oG_bzLmvjMr-334" value="" style="whiteSpace=wrap;rounded=1;fillColor=#F2931E;strokeColor=none;shadow=1;fontColor=#FFFFFF;fontStyle=1;fontSize=14;strokeWidth=7;" vertex="1" parent="u5dQJUDq4oG_bzLmvjMr-330">
          <mxGeometry x="397.2664150943395" y="79.2452830188678" width="64.71698113207547" height="39.62264150943396" as="geometry" />
        </mxCell>
        <mxCell id="u5dQJUDq4oG_bzLmvjMr-335" value="" style="whiteSpace=wrap;rounded=1;fillColor=#F2931E;strokeColor=none;shadow=1;fontColor=#FFFFFF;fontStyle=1;fontSize=14;strokeWidth=7;" vertex="1" parent="u5dQJUDq4oG_bzLmvjMr-330">
          <mxGeometry x="568.304150943396" y="79.2452830188678" width="64.71698113207547" height="39.62264150943396" as="geometry" />
        </mxCell>
        <mxCell id="u5dQJUDq4oG_bzLmvjMr-336" value="" style="whiteSpace=wrap;rounded=1;fillColor=#12AAB5;strokeColor=none;shadow=1;fontColor=#FFFFFF;strokeWidth=7;" vertex="1" parent="u5dQJUDq4oG_bzLmvjMr-330">
          <mxGeometry x="13.587169811320553" y="165.09433962264157" width="55.47169811320754" height="39.62264150943396" as="geometry" />
        </mxCell>
        <mxCell id="u5dQJUDq4oG_bzLmvjMr-337" value="" style="whiteSpace=wrap;rounded=1;fillColor=#12AAB5;strokeColor=none;shadow=1;fontColor=#FFFFFF;strokeWidth=7;" vertex="1" parent="u5dQJUDq4oG_bzLmvjMr-330">
          <mxGeometry x="106.03999999999981" y="165.09433962264157" width="55.47169811320754" height="39.62264150943396" as="geometry" />
        </mxCell>
        <mxCell id="u5dQJUDq4oG_bzLmvjMr-338" value="" style="edgeStyle=elbowEdgeStyle;elbow=vertical;rounded=0;fontColor=#000000;endArrow=none;endFill=0;strokeWidth=7;strokeColor=#23445D;" edge="1" parent="u5dQJUDq4oG_bzLmvjMr-330" source="u5dQJUDq4oG_bzLmvjMr-332" target="u5dQJUDq4oG_bzLmvjMr-336">
          <mxGeometry width="100" height="100" relative="1" as="geometry">
            <mxPoint x="-78.86566037735858" y="125.4716981132074" as="sourcePoint" />
            <mxPoint x="-125.0920754716982" y="171.69811320754715" as="targetPoint" />
          </mxGeometry>
        </mxCell>
        <mxCell id="u5dQJUDq4oG_bzLmvjMr-339" value="" style="edgeStyle=elbowEdgeStyle;elbow=vertical;rounded=0;fontColor=#000000;endArrow=none;endFill=0;strokeWidth=7;strokeColor=#23445D;" edge="1" parent="u5dQJUDq4oG_bzLmvjMr-330" source="u5dQJUDq4oG_bzLmvjMr-332" target="u5dQJUDq4oG_bzLmvjMr-337">
          <mxGeometry width="100" height="100" relative="1" as="geometry">
            <mxPoint x="-78.86566037735858" y="125.4716981132074" as="sourcePoint" />
            <mxPoint x="-32.639245283018965" y="171.69811320754715" as="targetPoint" />
          </mxGeometry>
        </mxCell>
        <mxCell id="u5dQJUDq4oG_bzLmvjMr-340" value="" style="whiteSpace=wrap;rounded=1;fillColor=#12AAB5;strokeColor=none;shadow=1;fontColor=#FFFFFF;strokeWidth=7;" vertex="1" parent="u5dQJUDq4oG_bzLmvjMr-330">
          <mxGeometry x="184.62490566037718" y="165.09433962264157" width="55.47169811320754" height="39.62264150943396" as="geometry" />
        </mxCell>
        <mxCell id="u5dQJUDq4oG_bzLmvjMr-341" value="" style="whiteSpace=wrap;rounded=1;fillColor=#12AAB5;strokeColor=none;shadow=1;fontColor=#FFFFFF;strokeWidth=7;" vertex="1" parent="u5dQJUDq4oG_bzLmvjMr-330">
          <mxGeometry x="277.0777358490564" y="165.09433962264157" width="55.47169811320754" height="39.62264150943396" as="geometry" />
        </mxCell>
        <mxCell id="u5dQJUDq4oG_bzLmvjMr-342" value="" style="whiteSpace=wrap;rounded=1;fillColor=#12AAB5;strokeColor=none;shadow=1;fontColor=#FFFFFF;strokeWidth=7;" vertex="1" parent="u5dQJUDq4oG_bzLmvjMr-330">
          <mxGeometry x="355.66264150943374" y="165.09433962264166" width="55.47169811320754" height="39.62264150943396" as="geometry" />
        </mxCell>
        <mxCell id="u5dQJUDq4oG_bzLmvjMr-343" value="" style="whiteSpace=wrap;rounded=1;fillColor=#12AAB5;strokeColor=none;shadow=1;fontColor=#FFFFFF;strokeWidth=7;" vertex="1" parent="u5dQJUDq4oG_bzLmvjMr-330">
          <mxGeometry x="448.11547169811297" y="165.09433962264166" width="55.47169811320754" height="39.62264150943396" as="geometry" />
        </mxCell>
        <mxCell id="u5dQJUDq4oG_bzLmvjMr-344" value="" style="whiteSpace=wrap;rounded=1;fillColor=#12AAB5;strokeColor=none;shadow=1;fontColor=#FFFFFF;strokeWidth=7;" vertex="1" parent="u5dQJUDq4oG_bzLmvjMr-330">
          <mxGeometry x="526.7003773584904" y="165.09433962264143" width="55.47169811320754" height="39.62264150943396" as="geometry" />
        </mxCell>
        <mxCell id="u5dQJUDq4oG_bzLmvjMr-345" value="" style="whiteSpace=wrap;rounded=1;fillColor=#12AAB5;strokeColor=none;shadow=1;fontColor=#FFFFFF;strokeWidth=7;" vertex="1" parent="u5dQJUDq4oG_bzLmvjMr-330">
          <mxGeometry x="619.1532075471696" y="165.09433962264143" width="55.47169811320754" height="39.62264150943396" as="geometry" />
        </mxCell>
        <mxCell id="u5dQJUDq4oG_bzLmvjMr-346" value="" style="edgeStyle=elbowEdgeStyle;elbow=vertical;rounded=0;fontColor=#000000;endArrow=none;endFill=0;strokeWidth=7;strokeColor=#23445D;" edge="1" parent="u5dQJUDq4oG_bzLmvjMr-330" source="u5dQJUDq4oG_bzLmvjMr-333" target="u5dQJUDq4oG_bzLmvjMr-340">
          <mxGeometry width="100" height="100" relative="1" as="geometry">
            <mxPoint x="170.75698113207537" y="145.28301886792454" as="sourcePoint" />
            <mxPoint x="216.983396226415" y="79.24528301886792" as="targetPoint" />
          </mxGeometry>
        </mxCell>
        <mxCell id="u5dQJUDq4oG_bzLmvjMr-347" value="" style="edgeStyle=elbowEdgeStyle;elbow=vertical;rounded=0;fontColor=#000000;endArrow=none;endFill=0;strokeWidth=7;strokeColor=#23445D;" edge="1" parent="u5dQJUDq4oG_bzLmvjMr-330" source="u5dQJUDq4oG_bzLmvjMr-333" target="u5dQJUDq4oG_bzLmvjMr-341">
          <mxGeometry width="100" height="100" relative="1" as="geometry">
            <mxPoint x="286.3230188679244" y="151.88679245283018" as="sourcePoint" />
            <mxPoint x="332.549433962264" y="85.84905660377358" as="targetPoint" />
          </mxGeometry>
        </mxCell>
        <mxCell id="u5dQJUDq4oG_bzLmvjMr-348" value="" style="edgeStyle=elbowEdgeStyle;elbow=vertical;rounded=0;fontColor=#000000;endArrow=none;endFill=0;strokeWidth=7;strokeColor=#23445D;" edge="1" parent="u5dQJUDq4oG_bzLmvjMr-330" source="u5dQJUDq4oG_bzLmvjMr-334" target="u5dQJUDq4oG_bzLmvjMr-342">
          <mxGeometry width="100" height="100" relative="1" as="geometry">
            <mxPoint x="429.62490566037724" y="165.0943396226415" as="sourcePoint" />
            <mxPoint x="383.3984905660376" y="92.45283018867924" as="targetPoint" />
          </mxGeometry>
        </mxCell>
        <mxCell id="u5dQJUDq4oG_bzLmvjMr-349" value="" style="edgeStyle=elbowEdgeStyle;elbow=vertical;rounded=0;fontColor=#000000;endArrow=none;endFill=0;strokeWidth=7;strokeColor=#23445D;" edge="1" parent="u5dQJUDq4oG_bzLmvjMr-330" source="u5dQJUDq4oG_bzLmvjMr-334" target="u5dQJUDq4oG_bzLmvjMr-343">
          <mxGeometry width="100" height="100" relative="1" as="geometry">
            <mxPoint x="471.22867924528293" y="158.49056603773585" as="sourcePoint" />
            <mxPoint x="517.4550943396225" y="92.45283018867924" as="targetPoint" />
          </mxGeometry>
        </mxCell>
        <mxCell id="u5dQJUDq4oG_bzLmvjMr-350" value="" style="edgeStyle=elbowEdgeStyle;elbow=vertical;rounded=0;fontColor=#000000;endArrow=none;endFill=0;strokeWidth=7;strokeColor=#23445D;" edge="1" parent="u5dQJUDq4oG_bzLmvjMr-330" source="u5dQJUDq4oG_bzLmvjMr-335" target="u5dQJUDq4oG_bzLmvjMr-344">
          <mxGeometry width="100" height="100" relative="1" as="geometry">
            <mxPoint x="526.7003773584904" y="158.49056603773585" as="sourcePoint" />
            <mxPoint x="572.9267924528301" y="92.45283018867924" as="targetPoint" />
          </mxGeometry>
        </mxCell>
        <mxCell id="u5dQJUDq4oG_bzLmvjMr-351" value="" style="edgeStyle=elbowEdgeStyle;elbow=vertical;rounded=0;fontColor=#000000;endArrow=none;endFill=0;strokeWidth=7;strokeColor=#23445D;" edge="1" parent="u5dQJUDq4oG_bzLmvjMr-330" source="u5dQJUDq4oG_bzLmvjMr-335" target="u5dQJUDq4oG_bzLmvjMr-345">
          <mxGeometry width="100" height="100" relative="1" as="geometry">
            <mxPoint x="633.0211320754715" y="158.49056603773585" as="sourcePoint" />
            <mxPoint x="679.2475471698112" y="92.45283018867924" as="targetPoint" />
          </mxGeometry>
        </mxCell>
        <mxCell id="u5dQJUDq4oG_bzLmvjMr-352" value="" style="edgeStyle=elbowEdgeStyle;elbow=vertical;rounded=0;fontColor=#000000;endArrow=none;endFill=0;strokeWidth=7;strokeColor=#23445D;" edge="1" parent="u5dQJUDq4oG_bzLmvjMr-330" source="u5dQJUDq4oG_bzLmvjMr-331" target="u5dQJUDq4oG_bzLmvjMr-332">
          <mxGeometry width="100" height="100" relative="1" as="geometry">
            <mxPoint x="64.43622641509424" y="66.0377358490566" as="sourcePoint" />
            <mxPoint x="110.66264150943387" as="targetPoint" />
          </mxGeometry>
        </mxCell>
        <mxCell id="u5dQJUDq4oG_bzLmvjMr-353" value="" style="edgeStyle=elbowEdgeStyle;elbow=vertical;rounded=0;fontColor=#000000;endArrow=none;endFill=0;strokeWidth=7;strokeColor=#23445D;" edge="1" parent="u5dQJUDq4oG_bzLmvjMr-330" source="u5dQJUDq4oG_bzLmvjMr-331" target="u5dQJUDq4oG_bzLmvjMr-333">
          <mxGeometry width="100" height="100" relative="1" as="geometry">
            <mxPoint x="69.0588679245282" y="72.64150943396227" as="sourcePoint" />
            <mxPoint x="115.28528301886783" y="6.60377358490566" as="targetPoint" />
          </mxGeometry>
        </mxCell>
        <mxCell id="u5dQJUDq4oG_bzLmvjMr-354" value="" style="edgeStyle=elbowEdgeStyle;elbow=vertical;rounded=0;fontColor=#000000;endArrow=none;endFill=0;strokeWidth=7;strokeColor=#23445D;" edge="1" parent="u5dQJUDq4oG_bzLmvjMr-330" source="u5dQJUDq4oG_bzLmvjMr-331" target="u5dQJUDq4oG_bzLmvjMr-334">
          <mxGeometry width="100" height="100" relative="1" as="geometry">
            <mxPoint x="73.68150943396216" y="79.24528301886792" as="sourcePoint" />
            <mxPoint x="119.90792452830178" y="13.20754716981132" as="targetPoint" />
          </mxGeometry>
        </mxCell>
        <mxCell id="u5dQJUDq4oG_bzLmvjMr-355" value="" style="edgeStyle=elbowEdgeStyle;elbow=vertical;rounded=0;fontColor=#000000;endArrow=none;endFill=0;strokeWidth=7;strokeColor=#23445D;" edge="1" parent="u5dQJUDq4oG_bzLmvjMr-330" source="u5dQJUDq4oG_bzLmvjMr-331" target="u5dQJUDq4oG_bzLmvjMr-335">
          <mxGeometry width="100" height="100" relative="1" as="geometry">
            <mxPoint x="78.30415094339614" y="85.84905660377358" as="sourcePoint" />
            <mxPoint x="124.53056603773575" y="19.81132075471698" as="targetPoint" />
          </mxGeometry>
        </mxCell>
        <mxCell id="u5dQJUDq4oG_bzLmvjMr-356" value="" style="shape=curlyBracket;whiteSpace=wrap;html=1;rounded=1;flipH=1;labelPosition=right;verticalLabelPosition=middle;align=left;verticalAlign=middle;rotation=90;strokeWidth=4;" vertex="1" parent="u5dQJUDq4oG_bzLmvjMr-330">
          <mxGeometry x="318.5399999999999" y="-91.7" width="41.6" height="678.68" as="geometry" />
        </mxCell>
        <mxCell id="u5dQJUDq4oG_bzLmvjMr-357" value="&lt;sup&gt;&lt;font style=&quot;font-size: 40px;&quot;&gt;Tree&lt;/font&gt;&lt;/sup&gt;&lt;sub style=&quot;font-size: 26px;&quot;&gt;&lt;font style=&quot;font-size: 26px;&quot;&gt;&lt;font style=&quot;font-size: 26px;&quot;&gt;(4)&lt;/font&gt;&lt;/font&gt;&lt;/sub&gt;&lt;font style=&quot;font-size: 40px;&quot;&gt; &lt;/font&gt;" style="text;html=1;strokeColor=none;fillColor=none;align=center;verticalAlign=middle;whiteSpace=wrap;rounded=0;" vertex="1" parent="u5dQJUDq4oG_bzLmvjMr-330">
          <mxGeometry x="298.88" y="264.15" width="172.12" height="85.85" as="geometry" />
        </mxCell>
        <mxCell id="u5dQJUDq4oG_bzLmvjMr-300" value="" style="group" vertex="1" connectable="0" parent="1">
          <mxGeometry x="450" y="390" width="1205.1399999999999" height="1486.98" as="geometry" />
        </mxCell>
        <mxCell id="u5dQJUDq4oG_bzLmvjMr-301" value="" style="group" vertex="1" connectable="0" parent="u5dQJUDq4oG_bzLmvjMr-300">
          <mxGeometry x="-433.5399999999999" width="678.6799999999998" height="350" as="geometry" />
        </mxCell>
        <mxCell id="u5dQJUDq4oG_bzLmvjMr-302" value="" style="whiteSpace=wrap;rounded=1;shadow=1;fillColor=#10739E;strokeColor=none;fontColor=#FFFFFF;fontStyle=1;fontSize=24;strokeWidth=7;" vertex="1" parent="u5dQJUDq4oG_bzLmvjMr-301">
          <mxGeometry x="272.4550943396225" width="157.16981132075472" height="39.62264150943396" as="geometry" />
        </mxCell>
        <mxCell id="u5dQJUDq4oG_bzLmvjMr-303" value="" style="whiteSpace=wrap;rounded=1;fillColor=#F2931E;strokeColor=none;shadow=1;fontColor=#FFFFFF;fontStyle=1;fontSize=14;strokeWidth=7;" vertex="1" parent="u5dQJUDq4oG_bzLmvjMr-301">
          <mxGeometry x="55.19094339622632" y="79.2452830188678" width="64.71698113207547" height="39.62264150943396" as="geometry" />
        </mxCell>
        <mxCell id="u5dQJUDq4oG_bzLmvjMr-304" value="" style="whiteSpace=wrap;rounded=1;fillColor=#F2931E;strokeColor=none;shadow=1;fontColor=#FFFFFF;fontStyle=1;fontSize=14;strokeWidth=7;" vertex="1" parent="u5dQJUDq4oG_bzLmvjMr-301">
          <mxGeometry x="226.22867924528293" y="79.2452830188678" width="64.71698113207547" height="39.62264150943396" as="geometry" />
        </mxCell>
        <mxCell id="u5dQJUDq4oG_bzLmvjMr-305" value="" style="whiteSpace=wrap;rounded=1;fillColor=#F2931E;strokeColor=none;shadow=1;fontColor=#FFFFFF;fontStyle=1;fontSize=14;strokeWidth=7;" vertex="1" parent="u5dQJUDq4oG_bzLmvjMr-301">
          <mxGeometry x="397.2664150943395" y="79.2452830188678" width="64.71698113207547" height="39.62264150943396" as="geometry" />
        </mxCell>
        <mxCell id="u5dQJUDq4oG_bzLmvjMr-306" value="" style="whiteSpace=wrap;rounded=1;fillColor=#F2931E;strokeColor=none;shadow=1;fontColor=#FFFFFF;fontStyle=1;fontSize=14;strokeWidth=7;" vertex="1" parent="u5dQJUDq4oG_bzLmvjMr-301">
          <mxGeometry x="568.304150943396" y="79.2452830188678" width="64.71698113207547" height="39.62264150943396" as="geometry" />
        </mxCell>
        <mxCell id="u5dQJUDq4oG_bzLmvjMr-307" value="" style="whiteSpace=wrap;rounded=1;fillColor=#12AAB5;strokeColor=none;shadow=1;fontColor=#FFFFFF;strokeWidth=7;" vertex="1" parent="u5dQJUDq4oG_bzLmvjMr-301">
          <mxGeometry x="13.587169811320553" y="165.09433962264157" width="55.47169811320754" height="39.62264150943396" as="geometry" />
        </mxCell>
        <mxCell id="u5dQJUDq4oG_bzLmvjMr-308" value="" style="whiteSpace=wrap;rounded=1;fillColor=#12AAB5;strokeColor=none;shadow=1;fontColor=#FFFFFF;strokeWidth=7;" vertex="1" parent="u5dQJUDq4oG_bzLmvjMr-301">
          <mxGeometry x="106.03999999999981" y="165.09433962264157" width="55.47169811320754" height="39.62264150943396" as="geometry" />
        </mxCell>
        <mxCell id="u5dQJUDq4oG_bzLmvjMr-309" value="" style="edgeStyle=elbowEdgeStyle;elbow=vertical;rounded=0;fontColor=#000000;endArrow=none;endFill=0;strokeWidth=7;strokeColor=#23445D;" edge="1" parent="u5dQJUDq4oG_bzLmvjMr-301" source="u5dQJUDq4oG_bzLmvjMr-303" target="u5dQJUDq4oG_bzLmvjMr-307">
          <mxGeometry width="100" height="100" relative="1" as="geometry">
            <mxPoint x="-78.86566037735858" y="125.4716981132074" as="sourcePoint" />
            <mxPoint x="-125.0920754716982" y="171.69811320754715" as="targetPoint" />
          </mxGeometry>
        </mxCell>
        <mxCell id="u5dQJUDq4oG_bzLmvjMr-310" value="" style="edgeStyle=elbowEdgeStyle;elbow=vertical;rounded=0;fontColor=#000000;endArrow=none;endFill=0;strokeWidth=7;strokeColor=#23445D;" edge="1" parent="u5dQJUDq4oG_bzLmvjMr-301" source="u5dQJUDq4oG_bzLmvjMr-303" target="u5dQJUDq4oG_bzLmvjMr-308">
          <mxGeometry width="100" height="100" relative="1" as="geometry">
            <mxPoint x="-78.86566037735858" y="125.4716981132074" as="sourcePoint" />
            <mxPoint x="-32.639245283018965" y="171.69811320754715" as="targetPoint" />
          </mxGeometry>
        </mxCell>
        <mxCell id="u5dQJUDq4oG_bzLmvjMr-311" value="" style="whiteSpace=wrap;rounded=1;fillColor=#12AAB5;strokeColor=none;shadow=1;fontColor=#FFFFFF;strokeWidth=7;" vertex="1" parent="u5dQJUDq4oG_bzLmvjMr-301">
          <mxGeometry x="184.62490566037718" y="165.09433962264157" width="55.47169811320754" height="39.62264150943396" as="geometry" />
        </mxCell>
        <mxCell id="u5dQJUDq4oG_bzLmvjMr-312" value="" style="whiteSpace=wrap;rounded=1;fillColor=#12AAB5;strokeColor=none;shadow=1;fontColor=#FFFFFF;strokeWidth=7;" vertex="1" parent="u5dQJUDq4oG_bzLmvjMr-301">
          <mxGeometry x="277.0777358490564" y="165.09433962264157" width="55.47169811320754" height="39.62264150943396" as="geometry" />
        </mxCell>
        <mxCell id="u5dQJUDq4oG_bzLmvjMr-313" value="" style="whiteSpace=wrap;rounded=1;fillColor=#12AAB5;strokeColor=none;shadow=1;fontColor=#FFFFFF;strokeWidth=7;" vertex="1" parent="u5dQJUDq4oG_bzLmvjMr-301">
          <mxGeometry x="355.66264150943374" y="165.09433962264166" width="55.47169811320754" height="39.62264150943396" as="geometry" />
        </mxCell>
        <mxCell id="u5dQJUDq4oG_bzLmvjMr-314" value="" style="whiteSpace=wrap;rounded=1;fillColor=#12AAB5;strokeColor=none;shadow=1;fontColor=#FFFFFF;strokeWidth=7;" vertex="1" parent="u5dQJUDq4oG_bzLmvjMr-301">
          <mxGeometry x="448.11547169811297" y="165.09433962264166" width="55.47169811320754" height="39.62264150943396" as="geometry" />
        </mxCell>
        <mxCell id="u5dQJUDq4oG_bzLmvjMr-315" value="" style="whiteSpace=wrap;rounded=1;fillColor=#12AAB5;strokeColor=none;shadow=1;fontColor=#FFFFFF;strokeWidth=7;" vertex="1" parent="u5dQJUDq4oG_bzLmvjMr-301">
          <mxGeometry x="526.7003773584904" y="165.09433962264143" width="55.47169811320754" height="39.62264150943396" as="geometry" />
        </mxCell>
        <mxCell id="u5dQJUDq4oG_bzLmvjMr-316" value="" style="whiteSpace=wrap;rounded=1;fillColor=#12AAB5;strokeColor=none;shadow=1;fontColor=#FFFFFF;strokeWidth=7;" vertex="1" parent="u5dQJUDq4oG_bzLmvjMr-301">
          <mxGeometry x="619.1532075471696" y="165.09433962264143" width="55.47169811320754" height="39.62264150943396" as="geometry" />
        </mxCell>
        <mxCell id="u5dQJUDq4oG_bzLmvjMr-317" value="" style="edgeStyle=elbowEdgeStyle;elbow=vertical;rounded=0;fontColor=#000000;endArrow=none;endFill=0;strokeWidth=7;strokeColor=#23445D;" edge="1" parent="u5dQJUDq4oG_bzLmvjMr-301" source="u5dQJUDq4oG_bzLmvjMr-304" target="u5dQJUDq4oG_bzLmvjMr-311">
          <mxGeometry width="100" height="100" relative="1" as="geometry">
            <mxPoint x="170.75698113207537" y="145.28301886792454" as="sourcePoint" />
            <mxPoint x="216.983396226415" y="79.24528301886792" as="targetPoint" />
          </mxGeometry>
        </mxCell>
        <mxCell id="u5dQJUDq4oG_bzLmvjMr-318" value="" style="edgeStyle=elbowEdgeStyle;elbow=vertical;rounded=0;fontColor=#000000;endArrow=none;endFill=0;strokeWidth=7;strokeColor=#23445D;" edge="1" parent="u5dQJUDq4oG_bzLmvjMr-301" source="u5dQJUDq4oG_bzLmvjMr-304" target="u5dQJUDq4oG_bzLmvjMr-312">
          <mxGeometry width="100" height="100" relative="1" as="geometry">
            <mxPoint x="286.3230188679244" y="151.88679245283018" as="sourcePoint" />
            <mxPoint x="332.549433962264" y="85.84905660377358" as="targetPoint" />
          </mxGeometry>
        </mxCell>
        <mxCell id="u5dQJUDq4oG_bzLmvjMr-319" value="" style="edgeStyle=elbowEdgeStyle;elbow=vertical;rounded=0;fontColor=#000000;endArrow=none;endFill=0;strokeWidth=7;strokeColor=#23445D;" edge="1" parent="u5dQJUDq4oG_bzLmvjMr-301" source="u5dQJUDq4oG_bzLmvjMr-305" target="u5dQJUDq4oG_bzLmvjMr-313">
          <mxGeometry width="100" height="100" relative="1" as="geometry">
            <mxPoint x="429.62490566037724" y="165.0943396226415" as="sourcePoint" />
            <mxPoint x="383.3984905660376" y="92.45283018867924" as="targetPoint" />
          </mxGeometry>
        </mxCell>
        <mxCell id="u5dQJUDq4oG_bzLmvjMr-320" value="" style="edgeStyle=elbowEdgeStyle;elbow=vertical;rounded=0;fontColor=#000000;endArrow=none;endFill=0;strokeWidth=7;strokeColor=#23445D;" edge="1" parent="u5dQJUDq4oG_bzLmvjMr-301" source="u5dQJUDq4oG_bzLmvjMr-305" target="u5dQJUDq4oG_bzLmvjMr-314">
          <mxGeometry width="100" height="100" relative="1" as="geometry">
            <mxPoint x="471.22867924528293" y="158.49056603773585" as="sourcePoint" />
            <mxPoint x="517.4550943396225" y="92.45283018867924" as="targetPoint" />
          </mxGeometry>
        </mxCell>
        <mxCell id="u5dQJUDq4oG_bzLmvjMr-321" value="" style="edgeStyle=elbowEdgeStyle;elbow=vertical;rounded=0;fontColor=#000000;endArrow=none;endFill=0;strokeWidth=7;strokeColor=#23445D;" edge="1" parent="u5dQJUDq4oG_bzLmvjMr-301" source="u5dQJUDq4oG_bzLmvjMr-306" target="u5dQJUDq4oG_bzLmvjMr-315">
          <mxGeometry width="100" height="100" relative="1" as="geometry">
            <mxPoint x="526.7003773584904" y="158.49056603773585" as="sourcePoint" />
            <mxPoint x="572.9267924528301" y="92.45283018867924" as="targetPoint" />
          </mxGeometry>
        </mxCell>
        <mxCell id="u5dQJUDq4oG_bzLmvjMr-322" value="" style="edgeStyle=elbowEdgeStyle;elbow=vertical;rounded=0;fontColor=#000000;endArrow=none;endFill=0;strokeWidth=7;strokeColor=#23445D;" edge="1" parent="u5dQJUDq4oG_bzLmvjMr-301" source="u5dQJUDq4oG_bzLmvjMr-306" target="u5dQJUDq4oG_bzLmvjMr-316">
          <mxGeometry width="100" height="100" relative="1" as="geometry">
            <mxPoint x="633.0211320754715" y="158.49056603773585" as="sourcePoint" />
            <mxPoint x="679.2475471698112" y="92.45283018867924" as="targetPoint" />
          </mxGeometry>
        </mxCell>
        <mxCell id="u5dQJUDq4oG_bzLmvjMr-323" value="" style="edgeStyle=elbowEdgeStyle;elbow=vertical;rounded=0;fontColor=#000000;endArrow=none;endFill=0;strokeWidth=7;strokeColor=#23445D;" edge="1" parent="u5dQJUDq4oG_bzLmvjMr-301" source="u5dQJUDq4oG_bzLmvjMr-302" target="u5dQJUDq4oG_bzLmvjMr-303">
          <mxGeometry width="100" height="100" relative="1" as="geometry">
            <mxPoint x="64.43622641509424" y="66.0377358490566" as="sourcePoint" />
            <mxPoint x="110.66264150943387" as="targetPoint" />
          </mxGeometry>
        </mxCell>
        <mxCell id="u5dQJUDq4oG_bzLmvjMr-324" value="" style="edgeStyle=elbowEdgeStyle;elbow=vertical;rounded=0;fontColor=#000000;endArrow=none;endFill=0;strokeWidth=7;strokeColor=#23445D;" edge="1" parent="u5dQJUDq4oG_bzLmvjMr-301" source="u5dQJUDq4oG_bzLmvjMr-302" target="u5dQJUDq4oG_bzLmvjMr-304">
          <mxGeometry width="100" height="100" relative="1" as="geometry">
            <mxPoint x="69.0588679245282" y="72.64150943396227" as="sourcePoint" />
            <mxPoint x="115.28528301886783" y="6.60377358490566" as="targetPoint" />
          </mxGeometry>
        </mxCell>
        <mxCell id="u5dQJUDq4oG_bzLmvjMr-325" value="" style="edgeStyle=elbowEdgeStyle;elbow=vertical;rounded=0;fontColor=#000000;endArrow=none;endFill=0;strokeWidth=7;strokeColor=#23445D;" edge="1" parent="u5dQJUDq4oG_bzLmvjMr-301" source="u5dQJUDq4oG_bzLmvjMr-302" target="u5dQJUDq4oG_bzLmvjMr-305">
          <mxGeometry width="100" height="100" relative="1" as="geometry">
            <mxPoint x="73.68150943396216" y="79.24528301886792" as="sourcePoint" />
            <mxPoint x="119.90792452830178" y="13.20754716981132" as="targetPoint" />
          </mxGeometry>
        </mxCell>
        <mxCell id="u5dQJUDq4oG_bzLmvjMr-326" value="" style="edgeStyle=elbowEdgeStyle;elbow=vertical;rounded=0;fontColor=#000000;endArrow=none;endFill=0;strokeWidth=7;strokeColor=#23445D;" edge="1" parent="u5dQJUDq4oG_bzLmvjMr-301" source="u5dQJUDq4oG_bzLmvjMr-302" target="u5dQJUDq4oG_bzLmvjMr-306">
          <mxGeometry width="100" height="100" relative="1" as="geometry">
            <mxPoint x="78.30415094339614" y="85.84905660377358" as="sourcePoint" />
            <mxPoint x="124.53056603773575" y="19.81132075471698" as="targetPoint" />
          </mxGeometry>
        </mxCell>
        <mxCell id="u5dQJUDq4oG_bzLmvjMr-327" value="" style="shape=curlyBracket;whiteSpace=wrap;html=1;rounded=1;flipH=1;labelPosition=right;verticalLabelPosition=middle;align=left;verticalAlign=middle;rotation=90;strokeWidth=4;" vertex="1" parent="u5dQJUDq4oG_bzLmvjMr-301">
          <mxGeometry x="318.5399999999999" y="-91.7" width="41.6" height="678.68" as="geometry" />
        </mxCell>
        <mxCell id="u5dQJUDq4oG_bzLmvjMr-328" value="&lt;sup&gt;&lt;font style=&quot;font-size: 40px;&quot;&gt;Tree&lt;/font&gt;&lt;/sup&gt;&lt;sub style=&quot;font-size: 26px;&quot;&gt;&lt;font style=&quot;font-size: 26px;&quot;&gt;&lt;font style=&quot;font-size: 26px;&quot;&gt;(3)&lt;/font&gt;&lt;/font&gt;&lt;/sub&gt;&lt;font style=&quot;font-size: 40px;&quot;&gt; &lt;/font&gt;" style="text;html=1;strokeColor=none;fillColor=none;align=center;verticalAlign=middle;whiteSpace=wrap;rounded=0;" vertex="1" parent="u5dQJUDq4oG_bzLmvjMr-301">
          <mxGeometry x="297.88" y="264.15" width="182.12" height="85.85" as="geometry" />
        </mxCell>
        <mxCell id="u5dQJUDq4oG_bzLmvjMr-531" value="" style="group" vertex="1" connectable="0" parent="u5dQJUDq4oG_bzLmvjMr-300">
          <mxGeometry x="436.46000000000004" y="890" width="678.6799999999998" height="350" as="geometry" />
        </mxCell>
        <mxCell id="u5dQJUDq4oG_bzLmvjMr-558" value="&lt;sup&gt;&lt;font style=&quot;font-size: 40px;&quot;&gt;Tree&lt;/font&gt;&lt;/sup&gt;&lt;sub style=&quot;font-size: 26px;&quot;&gt;&lt;font style=&quot;font-size: 26px;&quot;&gt;&lt;font style=&quot;font-size: 26px;&quot;&gt;(B)&lt;/font&gt;&lt;/font&gt;&lt;/sub&gt;&lt;font style=&quot;font-size: 40px;&quot;&gt; &lt;/font&gt;" style="text;html=1;strokeColor=none;fillColor=none;align=center;verticalAlign=middle;whiteSpace=wrap;rounded=0;" vertex="1" parent="u5dQJUDq4oG_bzLmvjMr-531">
          <mxGeometry x="298.88" y="264.15" width="172.12" height="85.85" as="geometry" />
        </mxCell>
        <mxCell id="u5dQJUDq4oG_bzLmvjMr-559" value="" style="group" vertex="1" connectable="0" parent="u5dQJUDq4oG_bzLmvjMr-300">
          <mxGeometry x="-373.53999999999996" y="900" width="678.6799999999998" height="350" as="geometry" />
        </mxCell>
        <mxCell id="u5dQJUDq4oG_bzLmvjMr-586" value="&lt;sup&gt;&lt;font style=&quot;font-size: 40px;&quot;&gt;Tree&lt;/font&gt;&lt;/sup&gt;&lt;sub style=&quot;font-size: 26px;&quot;&gt;&lt;font style=&quot;font-size: 26px;&quot;&gt;&lt;font style=&quot;font-size: 26px;&quot;&gt;(B-1)&lt;/font&gt;&lt;/font&gt;&lt;/sub&gt;&lt;font style=&quot;font-size: 40px;&quot;&gt; &lt;/font&gt;" style="text;html=1;strokeColor=none;fillColor=none;align=center;verticalAlign=middle;whiteSpace=wrap;rounded=0;" vertex="1" parent="u5dQJUDq4oG_bzLmvjMr-559">
          <mxGeometry x="297.88" y="264.15" width="242.12" height="85.85" as="geometry" />
        </mxCell>
        <mxCell id="u5dQJUDq4oG_bzLmvjMr-474" value="" style="group" vertex="1" connectable="0" parent="u5dQJUDq4oG_bzLmvjMr-300">
          <mxGeometry x="-450" y="510" width="735" height="673.96" as="geometry" />
        </mxCell>
        <mxCell id="u5dQJUDq4oG_bzLmvjMr-475" value="" style="group" vertex="1" connectable="0" parent="u5dQJUDq4oG_bzLmvjMr-474">
          <mxGeometry x="16.460000000000093" width="678.6799999999998" height="350" as="geometry" />
        </mxCell>
        <mxCell id="u5dQJUDq4oG_bzLmvjMr-476" value="" style="whiteSpace=wrap;rounded=1;shadow=1;fillColor=#10739E;strokeColor=none;fontColor=#FFFFFF;fontStyle=1;fontSize=24;strokeWidth=7;" vertex="1" parent="u5dQJUDq4oG_bzLmvjMr-475">
          <mxGeometry x="272.4550943396225" width="157.16981132075472" height="39.62264150943396" as="geometry" />
        </mxCell>
        <mxCell id="u5dQJUDq4oG_bzLmvjMr-477" value="" style="whiteSpace=wrap;rounded=1;fillColor=#F2931E;strokeColor=none;shadow=1;fontColor=#FFFFFF;fontStyle=1;fontSize=14;strokeWidth=7;" vertex="1" parent="u5dQJUDq4oG_bzLmvjMr-475">
          <mxGeometry x="55.19094339622632" y="79.2452830188678" width="64.71698113207547" height="39.62264150943396" as="geometry" />
        </mxCell>
        <mxCell id="u5dQJUDq4oG_bzLmvjMr-478" value="" style="whiteSpace=wrap;rounded=1;fillColor=#F2931E;strokeColor=none;shadow=1;fontColor=#FFFFFF;fontStyle=1;fontSize=14;strokeWidth=7;" vertex="1" parent="u5dQJUDq4oG_bzLmvjMr-475">
          <mxGeometry x="226.22867924528293" y="79.2452830188678" width="64.71698113207547" height="39.62264150943396" as="geometry" />
        </mxCell>
        <mxCell id="u5dQJUDq4oG_bzLmvjMr-479" value="" style="whiteSpace=wrap;rounded=1;fillColor=#F2931E;strokeColor=none;shadow=1;fontColor=#FFFFFF;fontStyle=1;fontSize=14;strokeWidth=7;" vertex="1" parent="u5dQJUDq4oG_bzLmvjMr-475">
          <mxGeometry x="397.2664150943395" y="79.2452830188678" width="64.71698113207547" height="39.62264150943396" as="geometry" />
        </mxCell>
        <mxCell id="u5dQJUDq4oG_bzLmvjMr-480" value="" style="whiteSpace=wrap;rounded=1;fillColor=#F2931E;strokeColor=none;shadow=1;fontColor=#FFFFFF;fontStyle=1;fontSize=14;strokeWidth=7;" vertex="1" parent="u5dQJUDq4oG_bzLmvjMr-475">
          <mxGeometry x="568.304150943396" y="79.2452830188678" width="64.71698113207547" height="39.62264150943396" as="geometry" />
        </mxCell>
        <mxCell id="u5dQJUDq4oG_bzLmvjMr-481" value="" style="whiteSpace=wrap;rounded=1;fillColor=#12AAB5;strokeColor=none;shadow=1;fontColor=#FFFFFF;strokeWidth=7;" vertex="1" parent="u5dQJUDq4oG_bzLmvjMr-475">
          <mxGeometry x="13.587169811320553" y="165.09433962264157" width="55.47169811320754" height="39.62264150943396" as="geometry" />
        </mxCell>
        <mxCell id="u5dQJUDq4oG_bzLmvjMr-482" value="" style="whiteSpace=wrap;rounded=1;fillColor=#12AAB5;strokeColor=none;shadow=1;fontColor=#FFFFFF;strokeWidth=7;" vertex="1" parent="u5dQJUDq4oG_bzLmvjMr-475">
          <mxGeometry x="106.03999999999981" y="165.09433962264157" width="55.47169811320754" height="39.62264150943396" as="geometry" />
        </mxCell>
        <mxCell id="u5dQJUDq4oG_bzLmvjMr-483" value="" style="edgeStyle=elbowEdgeStyle;elbow=vertical;rounded=0;fontColor=#000000;endArrow=none;endFill=0;strokeWidth=7;strokeColor=#23445D;" edge="1" parent="u5dQJUDq4oG_bzLmvjMr-475" source="u5dQJUDq4oG_bzLmvjMr-477" target="u5dQJUDq4oG_bzLmvjMr-481">
          <mxGeometry width="100" height="100" relative="1" as="geometry">
            <mxPoint x="-78.86566037735858" y="125.4716981132074" as="sourcePoint" />
            <mxPoint x="-125.0920754716982" y="171.69811320754715" as="targetPoint" />
          </mxGeometry>
        </mxCell>
        <mxCell id="u5dQJUDq4oG_bzLmvjMr-484" value="" style="edgeStyle=elbowEdgeStyle;elbow=vertical;rounded=0;fontColor=#000000;endArrow=none;endFill=0;strokeWidth=7;strokeColor=#23445D;" edge="1" parent="u5dQJUDq4oG_bzLmvjMr-475" source="u5dQJUDq4oG_bzLmvjMr-477" target="u5dQJUDq4oG_bzLmvjMr-482">
          <mxGeometry width="100" height="100" relative="1" as="geometry">
            <mxPoint x="-78.86566037735858" y="125.4716981132074" as="sourcePoint" />
            <mxPoint x="-32.639245283018965" y="171.69811320754715" as="targetPoint" />
          </mxGeometry>
        </mxCell>
        <mxCell id="u5dQJUDq4oG_bzLmvjMr-485" value="" style="whiteSpace=wrap;rounded=1;fillColor=#12AAB5;strokeColor=none;shadow=1;fontColor=#FFFFFF;strokeWidth=7;" vertex="1" parent="u5dQJUDq4oG_bzLmvjMr-475">
          <mxGeometry x="184.62490566037718" y="165.09433962264157" width="55.47169811320754" height="39.62264150943396" as="geometry" />
        </mxCell>
        <mxCell id="u5dQJUDq4oG_bzLmvjMr-486" value="" style="whiteSpace=wrap;rounded=1;fillColor=#12AAB5;strokeColor=none;shadow=1;fontColor=#FFFFFF;strokeWidth=7;" vertex="1" parent="u5dQJUDq4oG_bzLmvjMr-475">
          <mxGeometry x="277.0777358490564" y="165.09433962264157" width="55.47169811320754" height="39.62264150943396" as="geometry" />
        </mxCell>
        <mxCell id="u5dQJUDq4oG_bzLmvjMr-487" value="" style="whiteSpace=wrap;rounded=1;fillColor=#12AAB5;strokeColor=none;shadow=1;fontColor=#FFFFFF;strokeWidth=7;" vertex="1" parent="u5dQJUDq4oG_bzLmvjMr-475">
          <mxGeometry x="355.66264150943374" y="165.09433962264166" width="55.47169811320754" height="39.62264150943396" as="geometry" />
        </mxCell>
        <mxCell id="u5dQJUDq4oG_bzLmvjMr-488" value="" style="whiteSpace=wrap;rounded=1;fillColor=#12AAB5;strokeColor=none;shadow=1;fontColor=#FFFFFF;strokeWidth=7;" vertex="1" parent="u5dQJUDq4oG_bzLmvjMr-475">
          <mxGeometry x="448.11547169811297" y="165.09433962264166" width="55.47169811320754" height="39.62264150943396" as="geometry" />
        </mxCell>
        <mxCell id="u5dQJUDq4oG_bzLmvjMr-489" value="" style="whiteSpace=wrap;rounded=1;fillColor=#12AAB5;strokeColor=none;shadow=1;fontColor=#FFFFFF;strokeWidth=7;" vertex="1" parent="u5dQJUDq4oG_bzLmvjMr-475">
          <mxGeometry x="526.7003773584904" y="165.09433962264143" width="55.47169811320754" height="39.62264150943396" as="geometry" />
        </mxCell>
        <mxCell id="u5dQJUDq4oG_bzLmvjMr-490" value="" style="whiteSpace=wrap;rounded=1;fillColor=#12AAB5;strokeColor=none;shadow=1;fontColor=#FFFFFF;strokeWidth=7;" vertex="1" parent="u5dQJUDq4oG_bzLmvjMr-475">
          <mxGeometry x="619.1532075471696" y="165.09433962264143" width="55.47169811320754" height="39.62264150943396" as="geometry" />
        </mxCell>
        <mxCell id="u5dQJUDq4oG_bzLmvjMr-491" value="" style="edgeStyle=elbowEdgeStyle;elbow=vertical;rounded=0;fontColor=#000000;endArrow=none;endFill=0;strokeWidth=7;strokeColor=#23445D;" edge="1" parent="u5dQJUDq4oG_bzLmvjMr-475" source="u5dQJUDq4oG_bzLmvjMr-478" target="u5dQJUDq4oG_bzLmvjMr-485">
          <mxGeometry width="100" height="100" relative="1" as="geometry">
            <mxPoint x="170.75698113207537" y="145.28301886792454" as="sourcePoint" />
            <mxPoint x="216.983396226415" y="79.24528301886792" as="targetPoint" />
          </mxGeometry>
        </mxCell>
        <mxCell id="u5dQJUDq4oG_bzLmvjMr-492" value="" style="edgeStyle=elbowEdgeStyle;elbow=vertical;rounded=0;fontColor=#000000;endArrow=none;endFill=0;strokeWidth=7;strokeColor=#23445D;" edge="1" parent="u5dQJUDq4oG_bzLmvjMr-475" source="u5dQJUDq4oG_bzLmvjMr-478" target="u5dQJUDq4oG_bzLmvjMr-486">
          <mxGeometry width="100" height="100" relative="1" as="geometry">
            <mxPoint x="286.3230188679244" y="151.88679245283018" as="sourcePoint" />
            <mxPoint x="332.549433962264" y="85.84905660377358" as="targetPoint" />
          </mxGeometry>
        </mxCell>
        <mxCell id="u5dQJUDq4oG_bzLmvjMr-493" value="" style="edgeStyle=elbowEdgeStyle;elbow=vertical;rounded=0;fontColor=#000000;endArrow=none;endFill=0;strokeWidth=7;strokeColor=#23445D;" edge="1" parent="u5dQJUDq4oG_bzLmvjMr-475" source="u5dQJUDq4oG_bzLmvjMr-479" target="u5dQJUDq4oG_bzLmvjMr-487">
          <mxGeometry width="100" height="100" relative="1" as="geometry">
            <mxPoint x="429.62490566037724" y="165.0943396226415" as="sourcePoint" />
            <mxPoint x="383.3984905660376" y="92.45283018867924" as="targetPoint" />
          </mxGeometry>
        </mxCell>
        <mxCell id="u5dQJUDq4oG_bzLmvjMr-494" value="" style="edgeStyle=elbowEdgeStyle;elbow=vertical;rounded=0;fontColor=#000000;endArrow=none;endFill=0;strokeWidth=7;strokeColor=#23445D;" edge="1" parent="u5dQJUDq4oG_bzLmvjMr-475" source="u5dQJUDq4oG_bzLmvjMr-479" target="u5dQJUDq4oG_bzLmvjMr-488">
          <mxGeometry width="100" height="100" relative="1" as="geometry">
            <mxPoint x="471.22867924528293" y="158.49056603773585" as="sourcePoint" />
            <mxPoint x="517.4550943396225" y="92.45283018867924" as="targetPoint" />
          </mxGeometry>
        </mxCell>
        <mxCell id="u5dQJUDq4oG_bzLmvjMr-495" value="" style="edgeStyle=elbowEdgeStyle;elbow=vertical;rounded=0;fontColor=#000000;endArrow=none;endFill=0;strokeWidth=7;strokeColor=#23445D;" edge="1" parent="u5dQJUDq4oG_bzLmvjMr-475" source="u5dQJUDq4oG_bzLmvjMr-480" target="u5dQJUDq4oG_bzLmvjMr-489">
          <mxGeometry width="100" height="100" relative="1" as="geometry">
            <mxPoint x="526.7003773584904" y="158.49056603773585" as="sourcePoint" />
            <mxPoint x="572.9267924528301" y="92.45283018867924" as="targetPoint" />
          </mxGeometry>
        </mxCell>
        <mxCell id="u5dQJUDq4oG_bzLmvjMr-496" value="" style="edgeStyle=elbowEdgeStyle;elbow=vertical;rounded=0;fontColor=#000000;endArrow=none;endFill=0;strokeWidth=7;strokeColor=#23445D;" edge="1" parent="u5dQJUDq4oG_bzLmvjMr-475" source="u5dQJUDq4oG_bzLmvjMr-480" target="u5dQJUDq4oG_bzLmvjMr-490">
          <mxGeometry width="100" height="100" relative="1" as="geometry">
            <mxPoint x="633.0211320754715" y="158.49056603773585" as="sourcePoint" />
            <mxPoint x="679.2475471698112" y="92.45283018867924" as="targetPoint" />
          </mxGeometry>
        </mxCell>
        <mxCell id="u5dQJUDq4oG_bzLmvjMr-497" value="" style="edgeStyle=elbowEdgeStyle;elbow=vertical;rounded=0;fontColor=#000000;endArrow=none;endFill=0;strokeWidth=7;strokeColor=#23445D;" edge="1" parent="u5dQJUDq4oG_bzLmvjMr-475" source="u5dQJUDq4oG_bzLmvjMr-476" target="u5dQJUDq4oG_bzLmvjMr-477">
          <mxGeometry width="100" height="100" relative="1" as="geometry">
            <mxPoint x="64.43622641509424" y="66.0377358490566" as="sourcePoint" />
            <mxPoint x="110.66264150943387" as="targetPoint" />
          </mxGeometry>
        </mxCell>
        <mxCell id="u5dQJUDq4oG_bzLmvjMr-498" value="" style="edgeStyle=elbowEdgeStyle;elbow=vertical;rounded=0;fontColor=#000000;endArrow=none;endFill=0;strokeWidth=7;strokeColor=#23445D;" edge="1" parent="u5dQJUDq4oG_bzLmvjMr-475" source="u5dQJUDq4oG_bzLmvjMr-476" target="u5dQJUDq4oG_bzLmvjMr-478">
          <mxGeometry width="100" height="100" relative="1" as="geometry">
            <mxPoint x="69.0588679245282" y="72.64150943396227" as="sourcePoint" />
            <mxPoint x="115.28528301886783" y="6.60377358490566" as="targetPoint" />
          </mxGeometry>
        </mxCell>
        <mxCell id="u5dQJUDq4oG_bzLmvjMr-499" value="" style="edgeStyle=elbowEdgeStyle;elbow=vertical;rounded=0;fontColor=#000000;endArrow=none;endFill=0;strokeWidth=7;strokeColor=#23445D;" edge="1" parent="u5dQJUDq4oG_bzLmvjMr-475" source="u5dQJUDq4oG_bzLmvjMr-476" target="u5dQJUDq4oG_bzLmvjMr-479">
          <mxGeometry width="100" height="100" relative="1" as="geometry">
            <mxPoint x="73.68150943396216" y="79.24528301886792" as="sourcePoint" />
            <mxPoint x="119.90792452830178" y="13.20754716981132" as="targetPoint" />
          </mxGeometry>
        </mxCell>
        <mxCell id="u5dQJUDq4oG_bzLmvjMr-500" value="" style="edgeStyle=elbowEdgeStyle;elbow=vertical;rounded=0;fontColor=#000000;endArrow=none;endFill=0;strokeWidth=7;strokeColor=#23445D;" edge="1" parent="u5dQJUDq4oG_bzLmvjMr-475" source="u5dQJUDq4oG_bzLmvjMr-476" target="u5dQJUDq4oG_bzLmvjMr-480">
          <mxGeometry width="100" height="100" relative="1" as="geometry">
            <mxPoint x="78.30415094339614" y="85.84905660377358" as="sourcePoint" />
            <mxPoint x="124.53056603773575" y="19.81132075471698" as="targetPoint" />
          </mxGeometry>
        </mxCell>
        <mxCell id="u5dQJUDq4oG_bzLmvjMr-501" value="" style="shape=curlyBracket;whiteSpace=wrap;html=1;rounded=1;flipH=1;labelPosition=right;verticalLabelPosition=middle;align=left;verticalAlign=middle;rotation=90;strokeWidth=4;" vertex="1" parent="u5dQJUDq4oG_bzLmvjMr-475">
          <mxGeometry x="318.5399999999999" y="-91.7" width="41.6" height="678.68" as="geometry" />
        </mxCell>
        <mxCell id="u5dQJUDq4oG_bzLmvjMr-502" value="&lt;sup&gt;&lt;font style=&quot;font-size: 40px;&quot;&gt;Tree&lt;/font&gt;&lt;/sup&gt;&lt;sub style=&quot;font-size: 26px;&quot;&gt;&lt;font style=&quot;font-size: 26px;&quot;&gt;&lt;font style=&quot;font-size: 26px;&quot;&gt;(B-3)&lt;/font&gt;&lt;/font&gt;&lt;/sub&gt;&lt;font style=&quot;font-size: 40px;&quot;&gt; &lt;/font&gt;" style="text;html=1;strokeColor=none;fillColor=none;align=center;verticalAlign=middle;whiteSpace=wrap;rounded=0;" vertex="1" parent="u5dQJUDq4oG_bzLmvjMr-475">
          <mxGeometry x="297.88" y="264.15" width="212.12" height="85.85" as="geometry" />
        </mxCell>
        <mxCell id="u5dQJUDq4oG_bzLmvjMr-503" value="" style="group" vertex="1" connectable="0" parent="u5dQJUDq4oG_bzLmvjMr-300">
          <mxGeometry x="376.46000000000004" y="510" width="678.6799999999998" height="350" as="geometry" />
        </mxCell>
        <mxCell id="u5dQJUDq4oG_bzLmvjMr-504" value="" style="whiteSpace=wrap;rounded=1;shadow=1;fillColor=#10739E;strokeColor=none;fontColor=#FFFFFF;fontStyle=1;fontSize=24;strokeWidth=7;" vertex="1" parent="u5dQJUDq4oG_bzLmvjMr-503">
          <mxGeometry x="272.4550943396225" width="157.16981132075472" height="39.62264150943396" as="geometry" />
        </mxCell>
        <mxCell id="u5dQJUDq4oG_bzLmvjMr-505" value="" style="whiteSpace=wrap;rounded=1;fillColor=#F2931E;strokeColor=none;shadow=1;fontColor=#FFFFFF;fontStyle=1;fontSize=14;strokeWidth=7;" vertex="1" parent="u5dQJUDq4oG_bzLmvjMr-503">
          <mxGeometry x="55.19094339622632" y="79.2452830188678" width="64.71698113207547" height="39.62264150943396" as="geometry" />
        </mxCell>
        <mxCell id="u5dQJUDq4oG_bzLmvjMr-506" value="" style="whiteSpace=wrap;rounded=1;fillColor=#F2931E;strokeColor=none;shadow=1;fontColor=#FFFFFF;fontStyle=1;fontSize=14;strokeWidth=7;" vertex="1" parent="u5dQJUDq4oG_bzLmvjMr-503">
          <mxGeometry x="226.22867924528293" y="79.2452830188678" width="64.71698113207547" height="39.62264150943396" as="geometry" />
        </mxCell>
        <mxCell id="u5dQJUDq4oG_bzLmvjMr-507" value="" style="whiteSpace=wrap;rounded=1;fillColor=#F2931E;strokeColor=none;shadow=1;fontColor=#FFFFFF;fontStyle=1;fontSize=14;strokeWidth=7;" vertex="1" parent="u5dQJUDq4oG_bzLmvjMr-503">
          <mxGeometry x="397.2664150943395" y="79.2452830188678" width="64.71698113207547" height="39.62264150943396" as="geometry" />
        </mxCell>
        <mxCell id="u5dQJUDq4oG_bzLmvjMr-508" value="" style="whiteSpace=wrap;rounded=1;fillColor=#F2931E;strokeColor=none;shadow=1;fontColor=#FFFFFF;fontStyle=1;fontSize=14;strokeWidth=7;" vertex="1" parent="u5dQJUDq4oG_bzLmvjMr-503">
          <mxGeometry x="568.304150943396" y="79.2452830188678" width="64.71698113207547" height="39.62264150943396" as="geometry" />
        </mxCell>
        <mxCell id="u5dQJUDq4oG_bzLmvjMr-509" value="" style="whiteSpace=wrap;rounded=1;fillColor=#12AAB5;strokeColor=none;shadow=1;fontColor=#FFFFFF;strokeWidth=7;" vertex="1" parent="u5dQJUDq4oG_bzLmvjMr-503">
          <mxGeometry x="13.587169811320553" y="165.09433962264157" width="55.47169811320754" height="39.62264150943396" as="geometry" />
        </mxCell>
        <mxCell id="u5dQJUDq4oG_bzLmvjMr-510" value="" style="whiteSpace=wrap;rounded=1;fillColor=#12AAB5;strokeColor=none;shadow=1;fontColor=#FFFFFF;strokeWidth=7;" vertex="1" parent="u5dQJUDq4oG_bzLmvjMr-503">
          <mxGeometry x="106.03999999999981" y="165.09433962264157" width="55.47169811320754" height="39.62264150943396" as="geometry" />
        </mxCell>
        <mxCell id="u5dQJUDq4oG_bzLmvjMr-511" value="" style="edgeStyle=elbowEdgeStyle;elbow=vertical;rounded=0;fontColor=#000000;endArrow=none;endFill=0;strokeWidth=7;strokeColor=#23445D;" edge="1" parent="u5dQJUDq4oG_bzLmvjMr-503" source="u5dQJUDq4oG_bzLmvjMr-505" target="u5dQJUDq4oG_bzLmvjMr-509">
          <mxGeometry width="100" height="100" relative="1" as="geometry">
            <mxPoint x="-78.86566037735858" y="125.4716981132074" as="sourcePoint" />
            <mxPoint x="-125.0920754716982" y="171.69811320754715" as="targetPoint" />
          </mxGeometry>
        </mxCell>
        <mxCell id="u5dQJUDq4oG_bzLmvjMr-512" value="" style="edgeStyle=elbowEdgeStyle;elbow=vertical;rounded=0;fontColor=#000000;endArrow=none;endFill=0;strokeWidth=7;strokeColor=#23445D;" edge="1" parent="u5dQJUDq4oG_bzLmvjMr-503" source="u5dQJUDq4oG_bzLmvjMr-505" target="u5dQJUDq4oG_bzLmvjMr-510">
          <mxGeometry width="100" height="100" relative="1" as="geometry">
            <mxPoint x="-78.86566037735858" y="125.4716981132074" as="sourcePoint" />
            <mxPoint x="-32.639245283018965" y="171.69811320754715" as="targetPoint" />
          </mxGeometry>
        </mxCell>
        <mxCell id="u5dQJUDq4oG_bzLmvjMr-513" value="" style="whiteSpace=wrap;rounded=1;fillColor=#12AAB5;strokeColor=none;shadow=1;fontColor=#FFFFFF;strokeWidth=7;" vertex="1" parent="u5dQJUDq4oG_bzLmvjMr-503">
          <mxGeometry x="184.62490566037718" y="165.09433962264157" width="55.47169811320754" height="39.62264150943396" as="geometry" />
        </mxCell>
        <mxCell id="u5dQJUDq4oG_bzLmvjMr-514" value="" style="whiteSpace=wrap;rounded=1;fillColor=#12AAB5;strokeColor=none;shadow=1;fontColor=#FFFFFF;strokeWidth=7;" vertex="1" parent="u5dQJUDq4oG_bzLmvjMr-503">
          <mxGeometry x="277.0777358490564" y="165.09433962264157" width="55.47169811320754" height="39.62264150943396" as="geometry" />
        </mxCell>
        <mxCell id="u5dQJUDq4oG_bzLmvjMr-515" value="" style="whiteSpace=wrap;rounded=1;fillColor=#12AAB5;strokeColor=none;shadow=1;fontColor=#FFFFFF;strokeWidth=7;" vertex="1" parent="u5dQJUDq4oG_bzLmvjMr-503">
          <mxGeometry x="355.66264150943374" y="165.09433962264166" width="55.47169811320754" height="39.62264150943396" as="geometry" />
        </mxCell>
        <mxCell id="u5dQJUDq4oG_bzLmvjMr-516" value="" style="whiteSpace=wrap;rounded=1;fillColor=#12AAB5;strokeColor=none;shadow=1;fontColor=#FFFFFF;strokeWidth=7;" vertex="1" parent="u5dQJUDq4oG_bzLmvjMr-503">
          <mxGeometry x="448.11547169811297" y="165.09433962264166" width="55.47169811320754" height="39.62264150943396" as="geometry" />
        </mxCell>
        <mxCell id="u5dQJUDq4oG_bzLmvjMr-517" value="" style="whiteSpace=wrap;rounded=1;fillColor=#12AAB5;strokeColor=none;shadow=1;fontColor=#FFFFFF;strokeWidth=7;" vertex="1" parent="u5dQJUDq4oG_bzLmvjMr-503">
          <mxGeometry x="526.7003773584904" y="165.09433962264143" width="55.47169811320754" height="39.62264150943396" as="geometry" />
        </mxCell>
        <mxCell id="u5dQJUDq4oG_bzLmvjMr-518" value="" style="whiteSpace=wrap;rounded=1;fillColor=#12AAB5;strokeColor=none;shadow=1;fontColor=#FFFFFF;strokeWidth=7;" vertex="1" parent="u5dQJUDq4oG_bzLmvjMr-503">
          <mxGeometry x="619.1532075471696" y="165.09433962264143" width="55.47169811320754" height="39.62264150943396" as="geometry" />
        </mxCell>
        <mxCell id="u5dQJUDq4oG_bzLmvjMr-519" value="" style="edgeStyle=elbowEdgeStyle;elbow=vertical;rounded=0;fontColor=#000000;endArrow=none;endFill=0;strokeWidth=7;strokeColor=#23445D;" edge="1" parent="u5dQJUDq4oG_bzLmvjMr-503" source="u5dQJUDq4oG_bzLmvjMr-506" target="u5dQJUDq4oG_bzLmvjMr-513">
          <mxGeometry width="100" height="100" relative="1" as="geometry">
            <mxPoint x="170.75698113207537" y="145.28301886792454" as="sourcePoint" />
            <mxPoint x="216.983396226415" y="79.24528301886792" as="targetPoint" />
          </mxGeometry>
        </mxCell>
        <mxCell id="u5dQJUDq4oG_bzLmvjMr-520" value="" style="edgeStyle=elbowEdgeStyle;elbow=vertical;rounded=0;fontColor=#000000;endArrow=none;endFill=0;strokeWidth=7;strokeColor=#23445D;" edge="1" parent="u5dQJUDq4oG_bzLmvjMr-503" source="u5dQJUDq4oG_bzLmvjMr-506" target="u5dQJUDq4oG_bzLmvjMr-514">
          <mxGeometry width="100" height="100" relative="1" as="geometry">
            <mxPoint x="286.3230188679244" y="151.88679245283018" as="sourcePoint" />
            <mxPoint x="332.549433962264" y="85.84905660377358" as="targetPoint" />
          </mxGeometry>
        </mxCell>
        <mxCell id="u5dQJUDq4oG_bzLmvjMr-521" value="" style="edgeStyle=elbowEdgeStyle;elbow=vertical;rounded=0;fontColor=#000000;endArrow=none;endFill=0;strokeWidth=7;strokeColor=#23445D;" edge="1" parent="u5dQJUDq4oG_bzLmvjMr-503" source="u5dQJUDq4oG_bzLmvjMr-507" target="u5dQJUDq4oG_bzLmvjMr-515">
          <mxGeometry width="100" height="100" relative="1" as="geometry">
            <mxPoint x="429.62490566037724" y="165.0943396226415" as="sourcePoint" />
            <mxPoint x="383.3984905660376" y="92.45283018867924" as="targetPoint" />
          </mxGeometry>
        </mxCell>
        <mxCell id="u5dQJUDq4oG_bzLmvjMr-522" value="" style="edgeStyle=elbowEdgeStyle;elbow=vertical;rounded=0;fontColor=#000000;endArrow=none;endFill=0;strokeWidth=7;strokeColor=#23445D;" edge="1" parent="u5dQJUDq4oG_bzLmvjMr-503" source="u5dQJUDq4oG_bzLmvjMr-507" target="u5dQJUDq4oG_bzLmvjMr-516">
          <mxGeometry width="100" height="100" relative="1" as="geometry">
            <mxPoint x="471.22867924528293" y="158.49056603773585" as="sourcePoint" />
            <mxPoint x="517.4550943396225" y="92.45283018867924" as="targetPoint" />
          </mxGeometry>
        </mxCell>
        <mxCell id="u5dQJUDq4oG_bzLmvjMr-523" value="" style="edgeStyle=elbowEdgeStyle;elbow=vertical;rounded=0;fontColor=#000000;endArrow=none;endFill=0;strokeWidth=7;strokeColor=#23445D;" edge="1" parent="u5dQJUDq4oG_bzLmvjMr-503" source="u5dQJUDq4oG_bzLmvjMr-508" target="u5dQJUDq4oG_bzLmvjMr-517">
          <mxGeometry width="100" height="100" relative="1" as="geometry">
            <mxPoint x="526.7003773584904" y="158.49056603773585" as="sourcePoint" />
            <mxPoint x="572.9267924528301" y="92.45283018867924" as="targetPoint" />
          </mxGeometry>
        </mxCell>
        <mxCell id="u5dQJUDq4oG_bzLmvjMr-524" value="" style="edgeStyle=elbowEdgeStyle;elbow=vertical;rounded=0;fontColor=#000000;endArrow=none;endFill=0;strokeWidth=7;strokeColor=#23445D;" edge="1" parent="u5dQJUDq4oG_bzLmvjMr-503" source="u5dQJUDq4oG_bzLmvjMr-508" target="u5dQJUDq4oG_bzLmvjMr-518">
          <mxGeometry width="100" height="100" relative="1" as="geometry">
            <mxPoint x="633.0211320754715" y="158.49056603773585" as="sourcePoint" />
            <mxPoint x="679.2475471698112" y="92.45283018867924" as="targetPoint" />
          </mxGeometry>
        </mxCell>
        <mxCell id="u5dQJUDq4oG_bzLmvjMr-525" value="" style="edgeStyle=elbowEdgeStyle;elbow=vertical;rounded=0;fontColor=#000000;endArrow=none;endFill=0;strokeWidth=7;strokeColor=#23445D;" edge="1" parent="u5dQJUDq4oG_bzLmvjMr-503" source="u5dQJUDq4oG_bzLmvjMr-504" target="u5dQJUDq4oG_bzLmvjMr-505">
          <mxGeometry width="100" height="100" relative="1" as="geometry">
            <mxPoint x="64.43622641509424" y="66.0377358490566" as="sourcePoint" />
            <mxPoint x="110.66264150943387" as="targetPoint" />
          </mxGeometry>
        </mxCell>
        <mxCell id="u5dQJUDq4oG_bzLmvjMr-526" value="" style="edgeStyle=elbowEdgeStyle;elbow=vertical;rounded=0;fontColor=#000000;endArrow=none;endFill=0;strokeWidth=7;strokeColor=#23445D;" edge="1" parent="u5dQJUDq4oG_bzLmvjMr-503" source="u5dQJUDq4oG_bzLmvjMr-504" target="u5dQJUDq4oG_bzLmvjMr-506">
          <mxGeometry width="100" height="100" relative="1" as="geometry">
            <mxPoint x="69.0588679245282" y="72.64150943396227" as="sourcePoint" />
            <mxPoint x="115.28528301886783" y="6.60377358490566" as="targetPoint" />
          </mxGeometry>
        </mxCell>
        <mxCell id="u5dQJUDq4oG_bzLmvjMr-527" value="" style="edgeStyle=elbowEdgeStyle;elbow=vertical;rounded=0;fontColor=#000000;endArrow=none;endFill=0;strokeWidth=7;strokeColor=#23445D;" edge="1" parent="u5dQJUDq4oG_bzLmvjMr-503" source="u5dQJUDq4oG_bzLmvjMr-504" target="u5dQJUDq4oG_bzLmvjMr-507">
          <mxGeometry width="100" height="100" relative="1" as="geometry">
            <mxPoint x="73.68150943396216" y="79.24528301886792" as="sourcePoint" />
            <mxPoint x="119.90792452830178" y="13.20754716981132" as="targetPoint" />
          </mxGeometry>
        </mxCell>
        <mxCell id="u5dQJUDq4oG_bzLmvjMr-528" value="" style="edgeStyle=elbowEdgeStyle;elbow=vertical;rounded=0;fontColor=#000000;endArrow=none;endFill=0;strokeWidth=7;strokeColor=#23445D;" edge="1" parent="u5dQJUDq4oG_bzLmvjMr-503" source="u5dQJUDq4oG_bzLmvjMr-504" target="u5dQJUDq4oG_bzLmvjMr-508">
          <mxGeometry width="100" height="100" relative="1" as="geometry">
            <mxPoint x="78.30415094339614" y="85.84905660377358" as="sourcePoint" />
            <mxPoint x="124.53056603773575" y="19.81132075471698" as="targetPoint" />
          </mxGeometry>
        </mxCell>
        <mxCell id="u5dQJUDq4oG_bzLmvjMr-529" value="" style="shape=curlyBracket;whiteSpace=wrap;html=1;rounded=1;flipH=1;labelPosition=right;verticalLabelPosition=middle;align=left;verticalAlign=middle;rotation=90;strokeWidth=4;" vertex="1" parent="u5dQJUDq4oG_bzLmvjMr-503">
          <mxGeometry x="318.5399999999999" y="-91.7" width="41.6" height="678.68" as="geometry" />
        </mxCell>
        <mxCell id="u5dQJUDq4oG_bzLmvjMr-530" value="&lt;sup&gt;&lt;font style=&quot;font-size: 40px;&quot;&gt;Tree&lt;/font&gt;&lt;/sup&gt;&lt;sub style=&quot;font-size: 26px;&quot;&gt;&lt;font style=&quot;font-size: 26px;&quot;&gt;&lt;font style=&quot;font-size: 26px;&quot;&gt;(B-2)&lt;/font&gt;&lt;/font&gt;&lt;/sub&gt;&lt;sup&gt;&lt;font style=&quot;font-size: 40px;&quot;&gt; &lt;br&gt;&lt;/font&gt;&lt;/sup&gt;" style="text;html=1;strokeColor=none;fillColor=none;align=center;verticalAlign=middle;whiteSpace=wrap;rounded=0;" vertex="1" parent="u5dQJUDq4oG_bzLmvjMr-503">
          <mxGeometry x="297.88" y="264.15" width="222.12" height="85.85" as="geometry" />
        </mxCell>
        <mxCell id="u5dQJUDq4oG_bzLmvjMr-532" value="" style="whiteSpace=wrap;rounded=1;shadow=1;fillColor=#10739E;strokeColor=none;fontColor=#FFFFFF;fontStyle=1;fontSize=24;strokeWidth=7;" vertex="1" parent="u5dQJUDq4oG_bzLmvjMr-300">
          <mxGeometry x="648.9150943396226" y="890" width="157.16981132075472" height="39.62264150943396" as="geometry" />
        </mxCell>
        <mxCell id="u5dQJUDq4oG_bzLmvjMr-533" value="" style="whiteSpace=wrap;rounded=1;fillColor=#F2931E;strokeColor=none;shadow=1;fontColor=#FFFFFF;fontStyle=1;fontSize=14;strokeWidth=7;" vertex="1" parent="u5dQJUDq4oG_bzLmvjMr-300">
          <mxGeometry x="431.65094339622635" y="969.2452830188678" width="64.71698113207547" height="39.62264150943396" as="geometry" />
        </mxCell>
        <mxCell id="u5dQJUDq4oG_bzLmvjMr-534" value="" style="whiteSpace=wrap;rounded=1;fillColor=#F2931E;strokeColor=none;shadow=1;fontColor=#FFFFFF;fontStyle=1;fontSize=14;strokeWidth=7;" vertex="1" parent="u5dQJUDq4oG_bzLmvjMr-300">
          <mxGeometry x="602.688679245283" y="969.2452830188678" width="64.71698113207547" height="39.62264150943396" as="geometry" />
        </mxCell>
        <mxCell id="u5dQJUDq4oG_bzLmvjMr-535" value="" style="whiteSpace=wrap;rounded=1;fillColor=#F2931E;strokeColor=none;shadow=1;fontColor=#FFFFFF;fontStyle=1;fontSize=14;strokeWidth=7;" vertex="1" parent="u5dQJUDq4oG_bzLmvjMr-300">
          <mxGeometry x="773.7264150943395" y="969.2452830188678" width="64.71698113207547" height="39.62264150943396" as="geometry" />
        </mxCell>
        <mxCell id="u5dQJUDq4oG_bzLmvjMr-536" value="" style="whiteSpace=wrap;rounded=1;fillColor=#F2931E;strokeColor=none;shadow=1;fontColor=#FFFFFF;fontStyle=1;fontSize=14;strokeWidth=7;" vertex="1" parent="u5dQJUDq4oG_bzLmvjMr-300">
          <mxGeometry x="944.7641509433961" y="969.2452830188678" width="64.71698113207547" height="39.62264150943396" as="geometry" />
        </mxCell>
        <mxCell id="u5dQJUDq4oG_bzLmvjMr-537" value="" style="whiteSpace=wrap;rounded=1;fillColor=#12AAB5;strokeColor=none;shadow=1;fontColor=#FFFFFF;strokeWidth=7;" vertex="1" parent="u5dQJUDq4oG_bzLmvjMr-300">
          <mxGeometry x="390.0471698113206" y="1055.0943396226417" width="55.47169811320754" height="39.62264150943396" as="geometry" />
        </mxCell>
        <mxCell id="u5dQJUDq4oG_bzLmvjMr-538" value="" style="whiteSpace=wrap;rounded=1;fillColor=#12AAB5;strokeColor=none;shadow=1;fontColor=#FFFFFF;strokeWidth=7;" vertex="1" parent="u5dQJUDq4oG_bzLmvjMr-300">
          <mxGeometry x="482.49999999999983" y="1055.0943396226417" width="55.47169811320754" height="39.62264150943396" as="geometry" />
        </mxCell>
        <mxCell id="u5dQJUDq4oG_bzLmvjMr-539" value="" style="edgeStyle=elbowEdgeStyle;elbow=vertical;rounded=0;fontColor=#000000;endArrow=none;endFill=0;strokeWidth=7;strokeColor=#23445D;" edge="1" parent="u5dQJUDq4oG_bzLmvjMr-300" source="u5dQJUDq4oG_bzLmvjMr-533" target="u5dQJUDq4oG_bzLmvjMr-537">
          <mxGeometry width="100" height="100" relative="1" as="geometry">
            <mxPoint x="297.5943396226414" y="1015.4716981132074" as="sourcePoint" />
            <mxPoint x="251.36792452830184" y="1061.698113207547" as="targetPoint" />
          </mxGeometry>
        </mxCell>
        <mxCell id="u5dQJUDq4oG_bzLmvjMr-540" value="" style="edgeStyle=elbowEdgeStyle;elbow=vertical;rounded=0;fontColor=#000000;endArrow=none;endFill=0;strokeWidth=7;strokeColor=#23445D;" edge="1" parent="u5dQJUDq4oG_bzLmvjMr-300" source="u5dQJUDq4oG_bzLmvjMr-533" target="u5dQJUDq4oG_bzLmvjMr-538">
          <mxGeometry width="100" height="100" relative="1" as="geometry">
            <mxPoint x="297.5943396226414" y="1015.4716981132074" as="sourcePoint" />
            <mxPoint x="343.82075471698107" y="1061.698113207547" as="targetPoint" />
          </mxGeometry>
        </mxCell>
        <mxCell id="u5dQJUDq4oG_bzLmvjMr-541" value="" style="whiteSpace=wrap;rounded=1;fillColor=#12AAB5;strokeColor=none;shadow=1;fontColor=#FFFFFF;strokeWidth=7;" vertex="1" parent="u5dQJUDq4oG_bzLmvjMr-300">
          <mxGeometry x="561.0849056603772" y="1055.0943396226417" width="55.47169811320754" height="39.62264150943396" as="geometry" />
        </mxCell>
        <mxCell id="u5dQJUDq4oG_bzLmvjMr-542" value="" style="whiteSpace=wrap;rounded=1;fillColor=#12AAB5;strokeColor=none;shadow=1;fontColor=#FFFFFF;strokeWidth=7;" vertex="1" parent="u5dQJUDq4oG_bzLmvjMr-300">
          <mxGeometry x="653.5377358490564" y="1055.0943396226417" width="55.47169811320754" height="39.62264150943396" as="geometry" />
        </mxCell>
        <mxCell id="u5dQJUDq4oG_bzLmvjMr-543" value="" style="whiteSpace=wrap;rounded=1;fillColor=#12AAB5;strokeColor=none;shadow=1;fontColor=#FFFFFF;strokeWidth=7;" vertex="1" parent="u5dQJUDq4oG_bzLmvjMr-300">
          <mxGeometry x="732.1226415094338" y="1055.0943396226417" width="55.47169811320754" height="39.62264150943396" as="geometry" />
        </mxCell>
        <mxCell id="u5dQJUDq4oG_bzLmvjMr-544" value="" style="whiteSpace=wrap;rounded=1;fillColor=#12AAB5;strokeColor=none;shadow=1;fontColor=#FFFFFF;strokeWidth=7;" vertex="1" parent="u5dQJUDq4oG_bzLmvjMr-300">
          <mxGeometry x="824.575471698113" y="1055.0943396226417" width="55.47169811320754" height="39.62264150943396" as="geometry" />
        </mxCell>
        <mxCell id="u5dQJUDq4oG_bzLmvjMr-545" value="" style="whiteSpace=wrap;rounded=1;fillColor=#12AAB5;strokeColor=none;shadow=1;fontColor=#FFFFFF;strokeWidth=7;" vertex="1" parent="u5dQJUDq4oG_bzLmvjMr-300">
          <mxGeometry x="903.1603773584905" y="1055.0943396226414" width="55.47169811320754" height="39.62264150943396" as="geometry" />
        </mxCell>
        <mxCell id="u5dQJUDq4oG_bzLmvjMr-546" value="" style="whiteSpace=wrap;rounded=1;fillColor=#12AAB5;strokeColor=none;shadow=1;fontColor=#FFFFFF;strokeWidth=7;" vertex="1" parent="u5dQJUDq4oG_bzLmvjMr-300">
          <mxGeometry x="995.6132075471696" y="1055.0943396226414" width="55.47169811320754" height="39.62264150943396" as="geometry" />
        </mxCell>
        <mxCell id="u5dQJUDq4oG_bzLmvjMr-547" value="" style="edgeStyle=elbowEdgeStyle;elbow=vertical;rounded=0;fontColor=#000000;endArrow=none;endFill=0;strokeWidth=7;strokeColor=#23445D;" edge="1" parent="u5dQJUDq4oG_bzLmvjMr-300" source="u5dQJUDq4oG_bzLmvjMr-534" target="u5dQJUDq4oG_bzLmvjMr-541">
          <mxGeometry width="100" height="100" relative="1" as="geometry">
            <mxPoint x="547.2169811320754" y="1035.2830188679245" as="sourcePoint" />
            <mxPoint x="593.4433962264151" y="969.2452830188679" as="targetPoint" />
          </mxGeometry>
        </mxCell>
        <mxCell id="u5dQJUDq4oG_bzLmvjMr-548" value="" style="edgeStyle=elbowEdgeStyle;elbow=vertical;rounded=0;fontColor=#000000;endArrow=none;endFill=0;strokeWidth=7;strokeColor=#23445D;" edge="1" parent="u5dQJUDq4oG_bzLmvjMr-300" source="u5dQJUDq4oG_bzLmvjMr-534" target="u5dQJUDq4oG_bzLmvjMr-542">
          <mxGeometry width="100" height="100" relative="1" as="geometry">
            <mxPoint x="662.7830188679245" y="1041.8867924528302" as="sourcePoint" />
            <mxPoint x="709.009433962264" y="975.8490566037735" as="targetPoint" />
          </mxGeometry>
        </mxCell>
        <mxCell id="u5dQJUDq4oG_bzLmvjMr-549" value="" style="edgeStyle=elbowEdgeStyle;elbow=vertical;rounded=0;fontColor=#000000;endArrow=none;endFill=0;strokeWidth=7;strokeColor=#23445D;" edge="1" parent="u5dQJUDq4oG_bzLmvjMr-300" source="u5dQJUDq4oG_bzLmvjMr-535" target="u5dQJUDq4oG_bzLmvjMr-543">
          <mxGeometry width="100" height="100" relative="1" as="geometry">
            <mxPoint x="806.0849056603772" y="1055.0943396226414" as="sourcePoint" />
            <mxPoint x="759.8584905660376" y="982.4528301886793" as="targetPoint" />
          </mxGeometry>
        </mxCell>
        <mxCell id="u5dQJUDq4oG_bzLmvjMr-550" value="" style="edgeStyle=elbowEdgeStyle;elbow=vertical;rounded=0;fontColor=#000000;endArrow=none;endFill=0;strokeWidth=7;strokeColor=#23445D;" edge="1" parent="u5dQJUDq4oG_bzLmvjMr-300" source="u5dQJUDq4oG_bzLmvjMr-535" target="u5dQJUDq4oG_bzLmvjMr-544">
          <mxGeometry width="100" height="100" relative="1" as="geometry">
            <mxPoint x="847.688679245283" y="1048.4905660377358" as="sourcePoint" />
            <mxPoint x="893.9150943396226" y="982.4528301886793" as="targetPoint" />
          </mxGeometry>
        </mxCell>
        <mxCell id="u5dQJUDq4oG_bzLmvjMr-551" value="" style="edgeStyle=elbowEdgeStyle;elbow=vertical;rounded=0;fontColor=#000000;endArrow=none;endFill=0;strokeWidth=7;strokeColor=#23445D;" edge="1" parent="u5dQJUDq4oG_bzLmvjMr-300" source="u5dQJUDq4oG_bzLmvjMr-536" target="u5dQJUDq4oG_bzLmvjMr-545">
          <mxGeometry width="100" height="100" relative="1" as="geometry">
            <mxPoint x="903.1603773584905" y="1048.4905660377358" as="sourcePoint" />
            <mxPoint x="949.3867924528302" y="982.4528301886793" as="targetPoint" />
          </mxGeometry>
        </mxCell>
        <mxCell id="u5dQJUDq4oG_bzLmvjMr-552" value="" style="edgeStyle=elbowEdgeStyle;elbow=vertical;rounded=0;fontColor=#000000;endArrow=none;endFill=0;strokeWidth=7;strokeColor=#23445D;" edge="1" parent="u5dQJUDq4oG_bzLmvjMr-300" source="u5dQJUDq4oG_bzLmvjMr-536" target="u5dQJUDq4oG_bzLmvjMr-546">
          <mxGeometry width="100" height="100" relative="1" as="geometry">
            <mxPoint x="1009.4811320754716" y="1048.4905660377358" as="sourcePoint" />
            <mxPoint x="1055.7075471698113" y="982.4528301886793" as="targetPoint" />
          </mxGeometry>
        </mxCell>
        <mxCell id="u5dQJUDq4oG_bzLmvjMr-553" value="" style="edgeStyle=elbowEdgeStyle;elbow=vertical;rounded=0;fontColor=#000000;endArrow=none;endFill=0;strokeWidth=7;strokeColor=#23445D;" edge="1" parent="u5dQJUDq4oG_bzLmvjMr-300" source="u5dQJUDq4oG_bzLmvjMr-532" target="u5dQJUDq4oG_bzLmvjMr-533">
          <mxGeometry width="100" height="100" relative="1" as="geometry">
            <mxPoint x="440.89622641509425" y="956.0377358490566" as="sourcePoint" />
            <mxPoint x="487.1226415094339" y="890" as="targetPoint" />
          </mxGeometry>
        </mxCell>
        <mxCell id="u5dQJUDq4oG_bzLmvjMr-554" value="" style="edgeStyle=elbowEdgeStyle;elbow=vertical;rounded=0;fontColor=#000000;endArrow=none;endFill=0;strokeWidth=7;strokeColor=#23445D;" edge="1" parent="u5dQJUDq4oG_bzLmvjMr-300" source="u5dQJUDq4oG_bzLmvjMr-532" target="u5dQJUDq4oG_bzLmvjMr-534">
          <mxGeometry width="100" height="100" relative="1" as="geometry">
            <mxPoint x="445.51886792452825" y="962.6415094339623" as="sourcePoint" />
            <mxPoint x="491.7452830188679" y="896.6037735849056" as="targetPoint" />
          </mxGeometry>
        </mxCell>
        <mxCell id="u5dQJUDq4oG_bzLmvjMr-555" value="" style="edgeStyle=elbowEdgeStyle;elbow=vertical;rounded=0;fontColor=#000000;endArrow=none;endFill=0;strokeWidth=7;strokeColor=#23445D;" edge="1" parent="u5dQJUDq4oG_bzLmvjMr-300" source="u5dQJUDq4oG_bzLmvjMr-532" target="u5dQJUDq4oG_bzLmvjMr-535">
          <mxGeometry width="100" height="100" relative="1" as="geometry">
            <mxPoint x="450.1415094339622" y="969.2452830188679" as="sourcePoint" />
            <mxPoint x="496.36792452830184" y="903.2075471698113" as="targetPoint" />
          </mxGeometry>
        </mxCell>
        <mxCell id="u5dQJUDq4oG_bzLmvjMr-556" value="" style="edgeStyle=elbowEdgeStyle;elbow=vertical;rounded=0;fontColor=#000000;endArrow=none;endFill=0;strokeWidth=7;strokeColor=#23445D;" edge="1" parent="u5dQJUDq4oG_bzLmvjMr-300" source="u5dQJUDq4oG_bzLmvjMr-532" target="u5dQJUDq4oG_bzLmvjMr-536">
          <mxGeometry width="100" height="100" relative="1" as="geometry">
            <mxPoint x="454.7641509433962" y="975.8490566037735" as="sourcePoint" />
            <mxPoint x="500.9905660377358" y="909.811320754717" as="targetPoint" />
          </mxGeometry>
        </mxCell>
        <mxCell id="u5dQJUDq4oG_bzLmvjMr-557" value="" style="shape=curlyBracket;whiteSpace=wrap;html=1;rounded=1;flipH=1;labelPosition=right;verticalLabelPosition=middle;align=left;verticalAlign=middle;rotation=90;strokeWidth=4;" vertex="1" parent="u5dQJUDq4oG_bzLmvjMr-300">
          <mxGeometry x="695" y="798.3" width="41.6" height="678.68" as="geometry" />
        </mxCell>
        <mxCell id="u5dQJUDq4oG_bzLmvjMr-560" value="" style="whiteSpace=wrap;rounded=1;shadow=1;fillColor=#10739E;strokeColor=none;fontColor=#FFFFFF;fontStyle=1;fontSize=24;strokeWidth=7;" vertex="1" parent="u5dQJUDq4oG_bzLmvjMr-300">
          <mxGeometry x="-161.08490566037744" y="900" width="157.16981132075472" height="39.62264150943396" as="geometry" />
        </mxCell>
        <mxCell id="u5dQJUDq4oG_bzLmvjMr-561" value="" style="whiteSpace=wrap;rounded=1;fillColor=#F2931E;strokeColor=none;shadow=1;fontColor=#FFFFFF;fontStyle=1;fontSize=14;strokeWidth=7;" vertex="1" parent="u5dQJUDq4oG_bzLmvjMr-300">
          <mxGeometry x="-378.34905660377365" y="979.2452830188678" width="64.71698113207547" height="39.62264150943396" as="geometry" />
        </mxCell>
        <mxCell id="u5dQJUDq4oG_bzLmvjMr-562" value="" style="whiteSpace=wrap;rounded=1;fillColor=#F2931E;strokeColor=none;shadow=1;fontColor=#FFFFFF;fontStyle=1;fontSize=14;strokeWidth=7;" vertex="1" parent="u5dQJUDq4oG_bzLmvjMr-300">
          <mxGeometry x="-207.31132075471703" y="979.2452830188678" width="64.71698113207547" height="39.62264150943396" as="geometry" />
        </mxCell>
        <mxCell id="u5dQJUDq4oG_bzLmvjMr-563" value="" style="whiteSpace=wrap;rounded=1;fillColor=#F2931E;strokeColor=none;shadow=1;fontColor=#FFFFFF;fontStyle=1;fontSize=14;strokeWidth=7;" vertex="1" parent="u5dQJUDq4oG_bzLmvjMr-300">
          <mxGeometry x="-36.27358490566047" y="979.2452830188678" width="64.71698113207547" height="39.62264150943396" as="geometry" />
        </mxCell>
        <mxCell id="u5dQJUDq4oG_bzLmvjMr-564" value="" style="whiteSpace=wrap;rounded=1;fillColor=#F2931E;strokeColor=none;shadow=1;fontColor=#FFFFFF;fontStyle=1;fontSize=14;strokeWidth=7;" vertex="1" parent="u5dQJUDq4oG_bzLmvjMr-300">
          <mxGeometry x="134.7641509433961" y="979.2452830188678" width="64.71698113207547" height="39.62264150943396" as="geometry" />
        </mxCell>
        <mxCell id="u5dQJUDq4oG_bzLmvjMr-565" value="" style="whiteSpace=wrap;rounded=1;fillColor=#12AAB5;strokeColor=none;shadow=1;fontColor=#FFFFFF;strokeWidth=7;" vertex="1" parent="u5dQJUDq4oG_bzLmvjMr-300">
          <mxGeometry x="-419.9528301886794" y="1065.0943396226417" width="55.47169811320754" height="39.62264150943396" as="geometry" />
        </mxCell>
        <mxCell id="u5dQJUDq4oG_bzLmvjMr-566" value="" style="whiteSpace=wrap;rounded=1;fillColor=#12AAB5;strokeColor=none;shadow=1;fontColor=#FFFFFF;strokeWidth=7;" vertex="1" parent="u5dQJUDq4oG_bzLmvjMr-300">
          <mxGeometry x="-327.50000000000017" y="1065.0943396226417" width="55.47169811320754" height="39.62264150943396" as="geometry" />
        </mxCell>
        <mxCell id="u5dQJUDq4oG_bzLmvjMr-567" value="" style="edgeStyle=elbowEdgeStyle;elbow=vertical;rounded=0;fontColor=#000000;endArrow=none;endFill=0;strokeWidth=7;strokeColor=#23445D;" edge="1" parent="u5dQJUDq4oG_bzLmvjMr-300" source="u5dQJUDq4oG_bzLmvjMr-561" target="u5dQJUDq4oG_bzLmvjMr-565">
          <mxGeometry width="100" height="100" relative="1" as="geometry">
            <mxPoint x="-512.4056603773586" y="1025.4716981132074" as="sourcePoint" />
            <mxPoint x="-558.6320754716982" y="1071.698113207547" as="targetPoint" />
          </mxGeometry>
        </mxCell>
        <mxCell id="u5dQJUDq4oG_bzLmvjMr-568" value="" style="edgeStyle=elbowEdgeStyle;elbow=vertical;rounded=0;fontColor=#000000;endArrow=none;endFill=0;strokeWidth=7;strokeColor=#23445D;" edge="1" parent="u5dQJUDq4oG_bzLmvjMr-300" source="u5dQJUDq4oG_bzLmvjMr-561" target="u5dQJUDq4oG_bzLmvjMr-566">
          <mxGeometry width="100" height="100" relative="1" as="geometry">
            <mxPoint x="-512.4056603773586" y="1025.4716981132074" as="sourcePoint" />
            <mxPoint x="-466.17924528301893" y="1071.698113207547" as="targetPoint" />
          </mxGeometry>
        </mxCell>
        <mxCell id="u5dQJUDq4oG_bzLmvjMr-569" value="" style="whiteSpace=wrap;rounded=1;fillColor=#12AAB5;strokeColor=none;shadow=1;fontColor=#FFFFFF;strokeWidth=7;" vertex="1" parent="u5dQJUDq4oG_bzLmvjMr-300">
          <mxGeometry x="-248.91509433962278" y="1065.0943396226417" width="55.47169811320754" height="39.62264150943396" as="geometry" />
        </mxCell>
        <mxCell id="u5dQJUDq4oG_bzLmvjMr-570" value="" style="whiteSpace=wrap;rounded=1;fillColor=#12AAB5;strokeColor=none;shadow=1;fontColor=#FFFFFF;strokeWidth=7;" vertex="1" parent="u5dQJUDq4oG_bzLmvjMr-300">
          <mxGeometry x="-156.46226415094355" y="1065.0943396226417" width="55.47169811320754" height="39.62264150943396" as="geometry" />
        </mxCell>
        <mxCell id="u5dQJUDq4oG_bzLmvjMr-571" value="" style="whiteSpace=wrap;rounded=1;fillColor=#12AAB5;strokeColor=none;shadow=1;fontColor=#FFFFFF;strokeWidth=7;" vertex="1" parent="u5dQJUDq4oG_bzLmvjMr-300">
          <mxGeometry x="-77.87735849056622" y="1065.0943396226417" width="55.47169811320754" height="39.62264150943396" as="geometry" />
        </mxCell>
        <mxCell id="u5dQJUDq4oG_bzLmvjMr-572" value="" style="whiteSpace=wrap;rounded=1;fillColor=#12AAB5;strokeColor=none;shadow=1;fontColor=#FFFFFF;strokeWidth=7;" vertex="1" parent="u5dQJUDq4oG_bzLmvjMr-300">
          <mxGeometry x="14.575471698113006" y="1065.0943396226417" width="55.47169811320754" height="39.62264150943396" as="geometry" />
        </mxCell>
        <mxCell id="u5dQJUDq4oG_bzLmvjMr-573" value="" style="whiteSpace=wrap;rounded=1;fillColor=#12AAB5;strokeColor=none;shadow=1;fontColor=#FFFFFF;strokeWidth=7;" vertex="1" parent="u5dQJUDq4oG_bzLmvjMr-300">
          <mxGeometry x="93.16037735849045" y="1065.0943396226414" width="55.47169811320754" height="39.62264150943396" as="geometry" />
        </mxCell>
        <mxCell id="u5dQJUDq4oG_bzLmvjMr-574" value="" style="whiteSpace=wrap;rounded=1;fillColor=#12AAB5;strokeColor=none;shadow=1;fontColor=#FFFFFF;strokeWidth=7;" vertex="1" parent="u5dQJUDq4oG_bzLmvjMr-300">
          <mxGeometry x="185.61320754716962" y="1065.0943396226414" width="55.47169811320754" height="39.62264150943396" as="geometry" />
        </mxCell>
        <mxCell id="u5dQJUDq4oG_bzLmvjMr-575" value="" style="edgeStyle=elbowEdgeStyle;elbow=vertical;rounded=0;fontColor=#000000;endArrow=none;endFill=0;strokeWidth=7;strokeColor=#23445D;" edge="1" parent="u5dQJUDq4oG_bzLmvjMr-300" source="u5dQJUDq4oG_bzLmvjMr-562" target="u5dQJUDq4oG_bzLmvjMr-569">
          <mxGeometry width="100" height="100" relative="1" as="geometry">
            <mxPoint x="-262.7830188679246" y="1045.2830188679245" as="sourcePoint" />
            <mxPoint x="-216.55660377358495" y="979.2452830188679" as="targetPoint" />
          </mxGeometry>
        </mxCell>
        <mxCell id="u5dQJUDq4oG_bzLmvjMr-576" value="" style="edgeStyle=elbowEdgeStyle;elbow=vertical;rounded=0;fontColor=#000000;endArrow=none;endFill=0;strokeWidth=7;strokeColor=#23445D;" edge="1" parent="u5dQJUDq4oG_bzLmvjMr-300" source="u5dQJUDq4oG_bzLmvjMr-562" target="u5dQJUDq4oG_bzLmvjMr-570">
          <mxGeometry width="100" height="100" relative="1" as="geometry">
            <mxPoint x="-147.21698113207555" y="1051.8867924528302" as="sourcePoint" />
            <mxPoint x="-100.99056603773596" y="985.8490566037735" as="targetPoint" />
          </mxGeometry>
        </mxCell>
        <mxCell id="u5dQJUDq4oG_bzLmvjMr-577" value="" style="edgeStyle=elbowEdgeStyle;elbow=vertical;rounded=0;fontColor=#000000;endArrow=none;endFill=0;strokeWidth=7;strokeColor=#23445D;" edge="1" parent="u5dQJUDq4oG_bzLmvjMr-300" source="u5dQJUDq4oG_bzLmvjMr-563" target="u5dQJUDq4oG_bzLmvjMr-571">
          <mxGeometry width="100" height="100" relative="1" as="geometry">
            <mxPoint x="-3.9150943396227262" y="1065.0943396226414" as="sourcePoint" />
            <mxPoint x="-50.14150943396237" y="992.4528301886793" as="targetPoint" />
          </mxGeometry>
        </mxCell>
        <mxCell id="u5dQJUDq4oG_bzLmvjMr-578" value="" style="edgeStyle=elbowEdgeStyle;elbow=vertical;rounded=0;fontColor=#000000;endArrow=none;endFill=0;strokeWidth=7;strokeColor=#23445D;" edge="1" parent="u5dQJUDq4oG_bzLmvjMr-300" source="u5dQJUDq4oG_bzLmvjMr-563" target="u5dQJUDq4oG_bzLmvjMr-572">
          <mxGeometry width="100" height="100" relative="1" as="geometry">
            <mxPoint x="37.68867924528297" y="1058.4905660377358" as="sourcePoint" />
            <mxPoint x="83.91509433962256" y="992.4528301886793" as="targetPoint" />
          </mxGeometry>
        </mxCell>
        <mxCell id="u5dQJUDq4oG_bzLmvjMr-579" value="" style="edgeStyle=elbowEdgeStyle;elbow=vertical;rounded=0;fontColor=#000000;endArrow=none;endFill=0;strokeWidth=7;strokeColor=#23445D;" edge="1" parent="u5dQJUDq4oG_bzLmvjMr-300" source="u5dQJUDq4oG_bzLmvjMr-564" target="u5dQJUDq4oG_bzLmvjMr-573">
          <mxGeometry width="100" height="100" relative="1" as="geometry">
            <mxPoint x="93.16037735849045" y="1058.4905660377358" as="sourcePoint" />
            <mxPoint x="139.38679245283015" y="992.4528301886793" as="targetPoint" />
          </mxGeometry>
        </mxCell>
        <mxCell id="u5dQJUDq4oG_bzLmvjMr-580" value="" style="edgeStyle=elbowEdgeStyle;elbow=vertical;rounded=0;fontColor=#000000;endArrow=none;endFill=0;strokeWidth=7;strokeColor=#23445D;" edge="1" parent="u5dQJUDq4oG_bzLmvjMr-300" source="u5dQJUDq4oG_bzLmvjMr-564" target="u5dQJUDq4oG_bzLmvjMr-574">
          <mxGeometry width="100" height="100" relative="1" as="geometry">
            <mxPoint x="199.48113207547158" y="1058.4905660377358" as="sourcePoint" />
            <mxPoint x="245.70754716981128" y="992.4528301886793" as="targetPoint" />
          </mxGeometry>
        </mxCell>
        <mxCell id="u5dQJUDq4oG_bzLmvjMr-581" value="" style="edgeStyle=elbowEdgeStyle;elbow=vertical;rounded=0;fontColor=#000000;endArrow=none;endFill=0;strokeWidth=7;strokeColor=#23445D;" edge="1" parent="u5dQJUDq4oG_bzLmvjMr-300" source="u5dQJUDq4oG_bzLmvjMr-560" target="u5dQJUDq4oG_bzLmvjMr-561">
          <mxGeometry width="100" height="100" relative="1" as="geometry">
            <mxPoint x="-369.10377358490575" y="966.0377358490566" as="sourcePoint" />
            <mxPoint x="-322.8773584905661" y="900" as="targetPoint" />
          </mxGeometry>
        </mxCell>
        <mxCell id="u5dQJUDq4oG_bzLmvjMr-582" value="" style="edgeStyle=elbowEdgeStyle;elbow=vertical;rounded=0;fontColor=#000000;endArrow=none;endFill=0;strokeWidth=7;strokeColor=#23445D;" edge="1" parent="u5dQJUDq4oG_bzLmvjMr-300" source="u5dQJUDq4oG_bzLmvjMr-560" target="u5dQJUDq4oG_bzLmvjMr-562">
          <mxGeometry width="100" height="100" relative="1" as="geometry">
            <mxPoint x="-364.48113207547175" y="972.6415094339623" as="sourcePoint" />
            <mxPoint x="-318.2547169811321" y="906.6037735849056" as="targetPoint" />
          </mxGeometry>
        </mxCell>
        <mxCell id="u5dQJUDq4oG_bzLmvjMr-583" value="" style="edgeStyle=elbowEdgeStyle;elbow=vertical;rounded=0;fontColor=#000000;endArrow=none;endFill=0;strokeWidth=7;strokeColor=#23445D;" edge="1" parent="u5dQJUDq4oG_bzLmvjMr-300" source="u5dQJUDq4oG_bzLmvjMr-560" target="u5dQJUDq4oG_bzLmvjMr-563">
          <mxGeometry width="100" height="100" relative="1" as="geometry">
            <mxPoint x="-359.8584905660378" y="979.2452830188679" as="sourcePoint" />
            <mxPoint x="-313.63207547169816" y="913.2075471698113" as="targetPoint" />
          </mxGeometry>
        </mxCell>
        <mxCell id="u5dQJUDq4oG_bzLmvjMr-584" value="" style="edgeStyle=elbowEdgeStyle;elbow=vertical;rounded=0;fontColor=#000000;endArrow=none;endFill=0;strokeWidth=7;strokeColor=#23445D;" edge="1" parent="u5dQJUDq4oG_bzLmvjMr-300" source="u5dQJUDq4oG_bzLmvjMr-560" target="u5dQJUDq4oG_bzLmvjMr-564">
          <mxGeometry width="100" height="100" relative="1" as="geometry">
            <mxPoint x="-355.2358490566038" y="985.8490566037735" as="sourcePoint" />
            <mxPoint x="-309.0094339622642" y="919.811320754717" as="targetPoint" />
          </mxGeometry>
        </mxCell>
        <mxCell id="u5dQJUDq4oG_bzLmvjMr-585" value="" style="shape=curlyBracket;whiteSpace=wrap;html=1;rounded=1;flipH=1;labelPosition=right;verticalLabelPosition=middle;align=left;verticalAlign=middle;rotation=90;strokeWidth=4;" vertex="1" parent="u5dQJUDq4oG_bzLmvjMr-300">
          <mxGeometry x="-115.00000000000006" y="808.3" width="41.6" height="678.68" as="geometry" />
        </mxCell>
        <mxCell id="u5dQJUDq4oG_bzLmvjMr-590" value="" style="endArrow=none;dashed=1;html=1;dashPattern=1 3;strokeWidth=11;rounded=0;" edge="1" parent="u5dQJUDq4oG_bzLmvjMr-300">
          <mxGeometry width="50" height="50" relative="1" as="geometry">
            <mxPoint x="719" y="350" as="sourcePoint" />
            <mxPoint x="719" y="460" as="targetPoint" />
            <Array as="points">
              <mxPoint x="719" y="460" />
            </Array>
          </mxGeometry>
        </mxCell>
        <mxCell id="u5dQJUDq4oG_bzLmvjMr-591" value="" style="endArrow=none;dashed=1;html=1;dashPattern=1 3;strokeWidth=11;rounded=0;" edge="1" parent="1">
          <mxGeometry width="50" height="50" relative="1" as="geometry">
            <mxPoint x="360" y="740" as="sourcePoint" />
            <mxPoint x="360" y="850" as="targetPoint" />
            <Array as="points">
              <mxPoint x="360" y="850" />
            </Array>
          </mxGeometry>
        </mxCell>
      </root>
    </mxGraphModel>
  </diagram>
</mxfile>
